<?xml version="1.0" encoding="utf-8"?>
<!-- Generator: Adobe Illustrator 25.3.1, SVG Export Plug-In . SVG Version: 6.00 Build 0)  -->
<svg version="1.0" id="Ebene_1" xmlns="http://www.w3.org/2000/svg" xmlns:xlink="http://www.w3.org/1999/xlink" x="0px" y="0px"
	 viewBox="0 0 638 489.1" style="enable-background:new 0 0 638 489.1;" xml:space="preserve">
<style type="text/css">
	.st0{fill:#CCCCCC;}
	.st1{fill:#E6E6E6;}
	.st2{fill:#DF0321;}
	.st3{fill:#2F2E41;}
	.st4{opacity:0.2;enable-background:new    ;}
	.st5{fill:#FFFFFF;}
	.st6{fill:#3F3D56;}
</style>
<path class="st0" d="M504,308c-75.1,0-134-13.6-134-31c0-10.4,20.9-19.7,57.2-25.5c0.5-0.1,1.1,0.3,1.1,0.8s-0.3,1.1-0.8,1.1
	c0,0,0,0,0,0c-34.3,5.5-55.5,14.5-55.5,23.5c0,15.7,60.4,29,132,29s132-13.3,132-29c0-9.1-21.4-18.1-55.9-23.6
	c-0.5-0.1-0.9-0.6-0.8-1.1c0.1-0.5,0.6-0.9,1.1-0.8C617,257.2,638,266.5,638,277C638,294.4,579.1,308,504,308z"/>
<path class="st1" d="M437.5,313.8c21.4,36.7,68.6,49.1,105.3,27.7c11.6-6.8,21.2-16.4,27.9-28C526.3,316.1,481.8,316.2,437.5,313.8z
	"/>
<path class="st1" d="M578,292.1c11.7-40.9-12-83.5-52.9-95.2c-40.9-11.7-83.5,12-95.2,52.9c-4,14.1-3.9,29,0.2,43
	C479.3,299.1,529,298.8,578,292.1z"/>
<path class="st0" d="M119.5,9c0-5-4-9-9-9s-9,4-9,9c0,3.6,2.2,6.9,5.5,8.3V64h7V17.3C117.3,15.9,119.5,12.6,119.5,9z"/>
<path class="st0" d="M170,233L170,233c-11.1,0-20-9-20-20c0-0.2,0-0.5,0-0.7c0.4-10.6,9.6-19.2,20.5-19.2h54.9l45.2-20
	c2.5-1.1,5.5,0,6.6,2.5l12.1,27.4c1.1,2.5,0,5.5-2.5,6.6l-44.5,19.7c-4.4,2-9.2,3-14,3L170,233z"/>
<path class="st0" d="M36.8,338.3c-0.3,0-0.5,0-0.8-0.1l-29.6-5h0c-2.4-0.4-4.1-2.7-3.7-5.2c0,0,0-0.1,0-0.1l23.1-118.1
	c1.8-10.6,11.9-17.7,22.5-15.9s17.7,11.9,15.9,22.5L41.2,334.7C40.8,336.8,38.9,338.3,36.8,338.3z"/>
<circle class="st1" cx="21" cy="346" r="18"/>
<circle class="st1" cx="108.3" cy="124.7" r="67"/>
<circle class="st1" cx="108.3" cy="124.7" r="67"/>
<circle class="st2" cx="108.3" cy="124.7" r="51"/>
<path class="st3" d="M114.2,146.1c-3.3-0.1-7.4-0.2-10.6-2.5c-1.9-1.5-3.1-3.7-3.2-6.1c-0.1-1.7,0.6-3.4,1.9-4.5
	c1.7-1.4,4.1-1.7,6.7-1l-2.7-19.7l2-0.3l3.2,23.2l-1.7-0.8c-1.9-0.9-4.6-1.3-6.2,0.1c-0.8,0.7-1.2,1.8-1.2,2.9
	c0.1,1.8,1,3.4,2.4,4.5c2.5,1.8,5.7,2,9.5,2.1L114.2,146.1z"/>
<rect x="85.7" y="114" class="st3" width="10.8" height="2"/>
<rect x="119.7" y="114" class="st3" width="10.8" height="2"/>
<path class="st4" d="M74,125c0-25.2,18.4-46.6,43.3-50.4c-27.8-4.7-54.1,14-58.8,41.8c-4.7,27.8,14,54.1,41.8,58.8
	c5.4,0.9,10.8,0.9,16.2,0.1C91.9,171.1,74,149.9,74,125z"/>
<path class="st1" d="M159.3,338.5h-102c-9.1,0-16.5-7.4-16.5-16.5V207c0-9.1,7.4-16.5,16.5-16.5h15.5v4.5c0,6.3,5.2,11.5,11.5,11.5
	h48c6.3,0,11.5-5.2,11.5-11.5v-4.5h15.5c9.1,0,16.5,7.4,16.5,16.5v115C175.8,331.1,168.4,338.5,159.3,338.5z"/>
<path class="st1" d="M173,449h-40v-46.2l-52.3-80.1l33.5-21.9l52,79.8c3.7,5.7,5.8,12.4,5.9,19.2L173,449z"/>
<path class="st1" d="M79.4,475.6l-38.3-7.3L63,353.3l38.3,7.3L79.4,475.6z"/>
<path class="st1" d="M151.3,373.5h-86c-4.7,0-8.5-3.8-8.5-8.5v-32c0-4.7,3.8-8.5,8.5-8.5h86c4.7,0,8.5,3.8,8.5,8.5v32
	C159.8,369.7,156,373.5,151.3,373.5z"/>
<path class="st0" d="M180,467.5h-46.5v-31H180c8.6,0,15.5,6.9,15.5,15.5S188.5,467.5,180,467.5z"/>
<path class="st0" d="M81.5,488.5l-44.7-12.8l8.5-29.8l44.7,12.8c8.2,2.4,13,10.9,10.6,19.2C98.3,486.1,89.7,490.9,81.5,488.5z"/>
<path class="st5" d="M157,241.5h-37c-1.9,0-3.5-1.6-3.5-3.5s1.6-3.5,3.5-3.5h37c1.9,0,3.5,1.6,3.5,3.5S158.9,241.5,157,241.5z"/>
<path class="st5" d="M157,254h-37c-1.9,0-3.5-1.6-3.5-3.5s1.6-3.5,3.5-3.5h37c1.9,0,3.5,1.6,3.5,3.5S158.9,254,157,254z"/>
<circle class="st1" cx="292" cy="184" r="18"/>
<path class="st6" d="M297.5,256.5c-3.3,0-6-2.7-6-6v-216c0-3.3,2.7-6,6-6s6,2.7,6,6v216C303.5,253.8,300.8,256.5,297.5,256.5z"/>
<path class="st2" d="M486.1,28.1c-5.3-4.6-23.4-19-46.7-21.6c-17.5-1.9-37.9,2.7-58,22.8c-16.2,16.2-31.4,23.8-45.4,22.8
	c-14.2-1.1-23.7-11.2-28-17.1c-0.6-0.9-1.8-1.2-2.8-0.9c-1,0.3-1.7,1.3-1.7,2.4v74.7c0,1,0.6,1.8,1.4,2.3
	c5.4,2.6,25.1,11.1,44.8,11.1c11.6,0,23.2-3,32.1-11.8c0.1-0.1,0.2-0.2,0.3-0.2c15.7-15.2,50.2-12.1,75.4-7.1
	c10.4,2.1,19.2,4.4,24.5,6c2.4,0.7,4.9-0.7,5.6-3.1c0.1-0.4,0.2-0.8,0.2-1.3V31.5C487.6,30.2,487.1,29,486.1,28.1z"/>
<circle class="st5" cx="520" cy="234" r="9"/>
<ellipse transform="matrix(0.1602 -0.9871 0.9871 0.1602 94.5316 777.1086)" class="st5" cx="504" cy="333" rx="9" ry="9"/>
<circle class="st5" cx="475" cy="265" r="15"/>
<g>
	<g>
		<path class="st5" d="M317.2,93.7c-4.9-2.6-7.5-6.1-7.4-11.7c0.1-5,0.2-8.1,0.3-13.1c0.1-5.6,2.3-5.1,7.2-2.6
			c2.9,1.4,4.3,2,7.1,2.9c0.7,0.2,1.1,0.6,1.1,1.4c0.1,1.5,0.1,2.4,0.1,4.2c0,1-0.3,1.3-1,1.1c-2.3-0.7-3.5-1.2-5.8-2.3
			c-1.2-0.6-1.8-0.3-1.8,1.1c-0.1,3.9-0.2,6.2-0.2,10.1c0,1.4,0.5,2.3,1.8,2.9c2.4,1.1,3.5,1.6,5.9,2.4c0.7,0.2,1,0.8,1,1.7
			c0,1.8,0,2.7,0.1,4.2c0,0.8-0.3,1-1,0.7C321.5,95.8,320.1,95.2,317.2,93.7z"/>
		<path class="st5" d="M333.7,98.8c-0.7-0.1-1.1-0.4-1.1-1.2c-0.2-6.1,0.1-12,0.2-19.9c-1.7-0.2-2.5-0.3-4.2-0.7
			c-0.7-0.1-1-0.7-1-1.6c0-1.9,0-2.7-0.1-4.2c0-0.8,0.3-1,1-0.8c6,1.2,9,1.2,15.1,0.5c0.7-0.1,1,0.2,1.1,1c0,1.5,0.1,2.4,0.1,4.3
			c0,1-0.3,1.5-1,1.6c-1.7,0.2-2.5,0.2-4.2,0.3c0,8-0.3,13.9-0.1,20.1c0,0.8-0.3,1.1-1,1.1C336.5,99,335.6,99,333.7,98.8z"/>
		<path class="st5" d="M348.6,98.4c-0.7,0.1-1.1-0.2-1.1-1c-0.2-8.2,0.2-17.9,0-26.1c0-0.8,0.3-1.1,1-1.3c5.2-0.9,7.8-1.5,13.2-2.9
			c0.8-0.2,1.1,0,1.1,0.8c0,1.5,0,2.4,0,4.3c0,1-0.3,1.6-1.1,1.8c-3.1,0.8-4.6,1.1-7.6,1.8c0,1.7,0,2.6,0,4.5c2-0.4,3.1-0.7,5.1-1.1
			c0.7-0.2,1.1,0.2,1.1,1.4c0,2.2,0,3.3,0,5.4c0,1.1-0.3,1.7-1.1,1.8c-2.1,0.5-3.1,0.7-5.1,1.1c0,3.4,0,5,0.1,7.5
			c0,0.8-0.3,1.2-1,1.3C351.3,98.1,350.4,98.2,348.6,98.4z"/>
		<path class="st5" d="M373.8,92.6c-0.5,0.2-0.8,0.1-1-0.7c-0.8-3-1-5.3-1.7-9.6c-0.4-2.7-0.6-3.5-0.5-6.6c0.2-5.1,0.3-7.7,0.3-11.1
			c0-0.8,0.3-1.3,0.9-1.7c1.6-1,2.4-1.5,3.9-2.7c0.6-0.4,0.9-0.4,0.9,0.5c-0.1,3.8-0.3,6.8-0.7,12.6c-0.1,0.7,0,1.3,0,2.1
			c0.2,2.7,0.3,4.2,0.4,6.8c0,0.6,0.1,0.8,0.3,0.7c0.1,0,0.1-0.1,0.2-0.1c0.2-0.1,0.3-0.4,0.4-1.1c0.6-3.1,0.9-4.8,1.6-8.3
			c0.2-0.9,0.3-1.6,0.4-2.4c0.5-6.1,0.8-9.3,1-13.3c0-0.9,0.3-1.4,0.9-1.9c1.4-1.3,2.1-1.9,3.5-3.2c0.6-0.5,0.8-0.4,0.7,0.6
			c-0.3,4.1-0.7,7.4-1.4,13.8c-0.4,3.8-0.8,5.2-1.6,9c-1.4,6.3-2,9.3-2.9,13.3c-0.2,1-0.5,1.4-0.9,1.5
			C376.7,91.6,375.8,91.9,373.8,92.6z"/>
		<path class="st5" d="M383.5,87c0.2-1.9,0.3-3.1,0.6-5.7c0.2-1.3,0.4-2.1,0.9-2.4c0.8-0.5,1.1-0.7,1.9-1.2c1-7.9,1.8-13.3,2.8-21.3
			c-0.9,0.7-1.3,1-2.2,1.7c-0.5,0.4-0.7,0-0.5-1.4c0.3-2.6,0.4-3.8,0.6-5.8c0.1-1,0.3-1.6,0.9-2.1c3.8-3.4,5.8-5,10.2-7.5
			c0.6-0.4,0.9-0.2,0.8,0.9c-0.2,2-0.3,3.3-0.7,6.1c-0.2,1.5-0.6,2.3-1.2,2.7c-1,0.6-1.5,0.9-2.5,1.5c-1.1,8.2-2.1,13.9-3.2,22.1
			c0.9-0.5,1.4-0.8,2.4-1.3c0.6-0.3,0.8,0.2,0.6,1.6c-0.4,2.8-0.5,4-0.7,6c-0.1,1-0.4,1.5-1.1,1.9c-4.4,2.4-6,3.4-9.1,5
			C383.6,88.3,383.4,88,383.5,87z"/>
		<path class="st5" d="M402.8,77.8c-0.7,0.4-1.2,0.4-1.5-0.4c-1.1-3-1.2-6-1.4-12c-0.1-3.7-0.1-5,0.5-9.3c1.1-7.2,1.6-10.9,2-15.1
			c0.1-1,0.4-1.5,1.1-1.7c1.8-0.7,2.7-0.9,4.7-1.4c0.8-0.2,1.2,0.1,1.1,1c-0.4,4.2-0.9,8-2,15.3c-0.1,0.9-0.2,1.7-0.2,2.7
			c0,3.6,0,5.4,0.2,8.6c0,0.8,0.1,0.9,0.5,0.8c0.1,0,0.2-0.1,0.4-0.1c0.4-0.1,0.5-0.4,0.8-1.2c1.1-3.6,1.8-5.5,3-9.3
			c0.3-1,0.5-1.8,0.7-2.7c1-7,1.6-10.7,2-14.8c0.1-0.9,0.5-1.2,1.4-1.3c2.2-0.1,3.4-0.1,5.7,0c1,0,1.3,0.4,1.2,1.3
			c-0.4,3.8-0.9,7.1-1.7,13.4c-0.5,3.8-1,5-2.4,8.7c-2.3,6-3.6,9.1-5.5,12.9c-0.5,1-1.1,1.3-2.1,1.5
			C407.6,75.8,405.8,76.3,402.8,77.8z"/>
		<path class="st5" d="M425.7,73.1c-1.1,0-1.6-0.2-1.5-1.1c1.2-11.1,2.4-22.2,3.6-33.3c0.1-0.9,0.6-1.1,1.5-1c7.2,1,11.1,2,18.4,4.5
			c1,0.3,1.4,0.8,1.4,1.6c-0.1,1.6-0.1,2.5-0.1,4.6c0,1.1-0.5,1.5-1.5,1.2c-4.5-1.4-6.8-1.9-11.4-2.8c-0.1,1.5-0.2,2.4-0.3,4
			c3.3,0.5,4.9,0.9,8.2,1.7c1.1,0.3,1.5,0.9,1.5,2.3c0,2.2,0,3.4-0.1,5.7c0,1.3-0.5,1.8-1.6,1.6c-3.5-0.6-5.2-0.9-8.7-1.2
			c-0.1,1.9-0.2,2.8-0.3,4.5c5,0.4,7.6,0.7,12.5,1.7c1.1,0.2,1.6,0.9,1.6,2c0,2.1,0,3-0.1,4.6c0,0.8-0.6,1-1.7,0.8
			C438.6,73.1,434,72.8,425.7,73.1z"/>
		<path class="st5" d="M455.1,76.1c-1.1-0.3-1.6-0.7-1.6-1.5c0-1.6,0-2.5,0-4.6c0-1.1,0.5-1.5,1.5-1.2c4.6,1.3,6.9,2,11,3.9
			c0.6,0.3,0.9-0.1,0.9-0.9c-0.1-1-0.5-1.6-1.1-2c-2.3-1.4-3.5-2.1-5.9-3.4c-3.8-2.1-6.5-4.9-6.7-10.5c-0.1-2.1-0.1-3.1-0.1-5
			c-0.1-5.2,3.1-5.6,7.8-3.3c4.1,2,6,3.1,9.6,5.5c0.8,0.5,1.1,1.1,1.1,2c0,1.6,0,2.6,0.2,4.6c0.1,1-0.2,1.3-1,0.8
			c-2.9-2-4.6-2.9-7.9-4.7c-0.6-0.3-1,0-0.9,0.9c0.1,0.8,0.5,1.6,1.1,2c2.2,1.4,3.3,2.2,5.4,3.8c3.3,2.5,5.3,5.9,6,11
			c0.2,1.9,0.4,2.9,0.5,4.7c0.4,4.9-2,4.9-6.7,2.6C463.3,78.4,460.7,77.5,455.1,76.1z"/>
	</g>
</g>
</svg>
