<svg id="esvqoVF5wmx1" xmlns="http://www.w3.org/2000/svg" xmlns:xlink="http://www.w3.org/1999/xlink" viewBox="0 0 960 213.9" shape-rendering="geometricPrecision" text-rendering="geometricPrecision"><rect id="esvqoVF5wmx2" width="960" height="217.8" rx="0" ry="0" transform="matrix(1 0 0 1 0 -4.9)" fill="rgb(0,18,32)" stroke="none" stroke-width="1"/><path id="esvqoVF5wmx3" d="M0,48.9L13.3,53.7C26.7,58.6,53.3,68.2,80,71.2C106.7,74.2,133.3,70.6,160,67.9C186.7,65.2,213.3,63.6,240,67.2C266.7,70.9,293.3,79.9,320,79.4C346.7,78.9,373.3,68.9,400,65.4C426.7,61.9,453.3,64.9,480,66.4C506.7,67.9,533.3,67.9,560,68.2C586.7,68.6,613.3,69.2,640,71.1C666.7,72.9,693.3,75.9,720,70.6C746.7,65.2,773.3,51.6,800,45.6C826.7,39.6,853.3,41.2,880,40.2C906.7,39.2,933.3,35.6,946.7,33.7L960,31.9L960,213.9L946.7,213.9C933.3,213.9,906.7,213.9,880,213.9C853.3,213.9,826.7,213.9,800,213.9C773.3,213.9,746.7,213.9,720,213.9C693.3,213.9,666.7,213.9,640,213.9C613.3,213.9,586.7,213.9,560,213.9C533.3,213.9,506.7,213.9,480,213.9C453.3,213.9,426.7,213.9,400,213.9C373.3,213.9,346.7,213.9,320,213.9C293.3,213.9,266.7,213.9,240,213.9C213.3,213.9,186.7,213.9,160,213.9C133.3,213.9,106.7,213.9,80,213.9C53.3,213.9,26.7,213.9,13.3,213.9L0,213.9L0,48.9Z" fill="rgb(250,114,104)" stroke="none" stroke-width="1"/><path id="esvqoVF5wmx4" d="M0,114.9L13.3,110.2C26.7,105.6,53.3,96.2,80,90.7C106.7,85.2,133.3,83.6,160,84.2C186.7,84.9,213.3,87.9,240,85.1C266.7,82.2,293.3,73.6,320,68.6C346.7,63.6,373.3,62.2,400,59.4C426.7,56.6,453.3,52.2,480,56.2C506.7,60.2,533.3,72.6,560,80.1C586.7,87.6,613.3,90.2,640,92.6C666.7,94.9,693.3,96.9,720,97.6C746.7,98.2,773.3,97.6,800,95.2C826.7,92.9,853.3,88.9,880,82.2C906.7,75.6,933.3,66.2,946.7,61.6L960,56.9L960,213.9L946.7,213.9C933.3,213.9,906.7,213.9,880,213.9C853.3,213.9,826.7,213.9,800,213.9C773.3,213.9,746.7,213.9,720,213.9C693.3,213.9,666.7,213.9,640,213.9C613.3,213.9,586.7,213.9,560,213.9C533.3,213.9,506.7,213.9,480,213.9C453.3,213.9,426.7,213.9,400,213.9C373.3,213.9,346.7,213.9,320,213.9C293.3,213.9,266.7,213.9,240,213.9C213.3,213.9,186.7,213.9,160,213.9C133.3,213.9,106.7,213.9,80,213.9C53.3,213.9,26.7,213.9,13.3,213.9L0,213.9L0,114.9Z" fill="rgb(244,95,86)" stroke="none" stroke-width="1"/><path id="esvqoVF5wmx5" d="M0,140.9L13.3,134.4C26.7,127.9,53.3,114.9,80,113.6C106.7,112.2,133.3,122.6,160,127.2C186.7,131.9,213.3,130.9,240,124.2C266.7,117.6,293.3,105.2,320,103.1C346.7,100.9,373.3,108.9,400,109.2C426.7,109.6,453.3,102.2,480,100.4C506.7,98.6,533.3,102.2,560,100.2C586.7,98.2,613.3,90.6,640,89.4C666.7,88.2,693.3,93.6,720,99.6C746.7,105.6,773.3,112.2,800,112.6C826.7,112.9,853.3,106.9,880,100.7C906.7,94.6,933.3,88.2,946.7,85.1L960,81.9L960,213.9L946.7,213.9C933.3,213.9,906.7,213.9,880,213.9C853.3,213.9,826.7,213.9,800,213.9C773.3,213.9,746.7,213.9,720,213.9C693.3,213.9,666.7,213.9,640,213.9C613.3,213.9,586.7,213.9,560,213.9C533.3,213.9,506.7,213.9,480,213.9C453.3,213.9,426.7,213.9,400,213.9C373.3,213.9,346.7,213.9,320,213.9C293.3,213.9,266.7,213.9,240,213.9C213.3,213.9,186.7,213.9,160,213.9C133.3,213.9,106.7,213.9,80,213.9C53.3,213.9,26.7,213.9,13.3,213.9L0,213.9L0,140.9Z" fill="rgb(238,74,68)" stroke="none" stroke-width="1"/><path id="esvqoVF5wmx6" d="M0,143.9L13.3,144.1C26.7,144.2,53.3,144.6,80,145.4C106.7,146.2,133.3,147.6,160,151.1C186.7,154.6,213.3,160.2,240,157.9C266.7,155.6,293.3,145.2,320,138.7C346.7,132.2,373.3,129.6,400,130.7C426.7,131.9,453.3,136.9,480,138.1C506.7,139.2,533.3,136.6,560,135.1C586.7,133.6,613.3,133.2,640,132.4C666.7,131.6,693.3,130.2,720,133.4C746.7,136.6,773.3,144.2,800,145.4C826.7,146.6,853.3,141.2,880,135.4C906.7,129.6,933.3,123.2,946.7,120.1L960,116.9L960,213.9L946.7,213.9C933.3,213.9,906.7,213.9,880,213.9C853.3,213.9,826.7,213.9,800,213.9C773.3,213.9,746.7,213.9,720,213.9C693.3,213.9,666.7,213.9,640,213.9C613.3,213.9,586.7,213.9,560,213.9C533.3,213.9,506.7,213.9,480,213.9C453.3,213.9,426.7,213.9,400,213.9C373.3,213.9,346.7,213.9,320,213.9C293.3,213.9,266.7,213.9,240,213.9C213.3,213.9,186.7,213.9,160,213.9C133.3,213.9,106.7,213.9,80,213.9C53.3,213.9,26.7,213.9,13.3,213.9L0,213.9L0,143.9Z" fill="rgb(231,49,51)" stroke="none" stroke-width="1"/><path id="esvqoVF5wmx7" d="M0,166.9L13.3,168.7C26.7,170.6,53.3,174.2,80,171.9C106.7,169.6,133.3,161.2,160,157.4C186.7,153.6,213.3,154.2,240,154.7C266.7,155.2,293.3,155.6,320,157.4C346.7,159.2,373.3,162.6,400,165.7C426.7,168.9,453.3,171.9,480,172.9C506.7,173.9,533.3,172.9,560,169.4C586.7,165.9,613.3,159.9,640,158.2C666.7,156.6,693.3,159.2,720,163.1C746.7,166.9,773.3,171.9,800,175.6C826.7,179.2,853.3,181.6,880,181.9C906.7,182.2,933.3,180.6,946.7,179.7L960,178.9L960,213.9L946.7,213.9C933.3,213.9,906.7,213.9,880,213.9C853.3,213.9,826.7,213.9,800,213.9C773.3,213.9,746.7,213.9,720,213.9C693.3,213.9,666.7,213.9,640,213.9C613.3,213.9,586.7,213.9,560,213.9C533.3,213.9,506.7,213.9,480,213.9C453.3,213.9,426.7,213.9,400,213.9C373.3,213.9,346.7,213.9,320,213.9C293.3,213.9,266.7,213.9,240,213.9C213.3,213.9,186.7,213.9,160,213.9C133.3,213.9,106.7,213.9,80,213.9C53.3,213.9,26.7,213.9,13.3,213.9L0,213.9L0,166.9Z" fill="rgb(223,3,33)" stroke="none" stroke-width="1"/><g id="esvqoVF5wmx8" transform="matrix(1 0 0 1 0 1)"><g id="esvqoVF5wmx9"><g id="esvqoVF5wmx10"><path id="esvqoVF5wmx11" d="M167.9,11.4C168.6,11.4,169.1,10.9,169.1,10.2C169.1,9.5,168.6,9,167.9,9C167.2,9,166.7,9.5,166.7,10.2C166.7,10.9,167.2,11.4,167.9,11.4Z" fill="rgb(255,255,255)" stroke="none" stroke-width="1"/><path id="esvqoVF5wmx12" d="M175.2,50.2C174.5,50.2,174,50.7,174,51.4C174,52.1,174.5,52.6,175.2,52.6C175.9,52.6,176.4,52.1,176.4,51.4C176.4,50.7,175.9,50.2,175.2,50.2Z" fill="rgb(255,255,255)" stroke="none" stroke-width="1"/><path id="esvqoVF5wmx13" d="M107.4,63.5C106.7,63.5,106.2,64,106.2,64.7C106.2,65.4,106.7,65.9,107.4,65.9C108.1,65.9,108.6,65.4,108.6,64.7C108.6,64,108.1,63.5,107.4,63.5Z" fill="rgb(255,255,255)" stroke="none" stroke-width="1"/><path id="esvqoVF5wmx14" d="M172.8,73.2L171.2,73.2L166.8,57.8C166.9,57.5,166.8,57.1,166.6,56.8C166.4,56.5,166.2,56.3,165.9,56.3L155.8,51.8L155.8,49L159.4,49C162.1,49,164.2,46.8,164.2,44.2L164.2,17.5C164.2,14.8,162,12.7,159.4,12.7L155.8,12.7L155.8,10.8C155.8,9.2,154.5,7.9,152.8,7.9L147.4,7.9L147.4,4.2C147.4,3.5,146.9,3,146.2,3C145.5,3,145,3.5,145,4.2L145,7.8L140.2,7.8L140.2,6.6C140.2,5.9,139.7,5.4,139,5.4C138.3,5.4,137.8,5.9,137.8,6.6L137.8,7.8L132.2,7.8C130.6,7.8,129.3,9.1,129.3,10.7L129.3,12.6L125.7,12.6C123,12.6,120.9,14.8,120.9,17.4L120.9,44C120.9,46.7,123.1,48.8,125.7,48.8L129.3,48.8L129.3,51.7L119.6,56C119.2,56,118.8,56.2,118.5,56.6C118.4,56.8,118.3,57.1,118.3,57.4L113.8,73.1L112.3,73.1C111.6,73.1,111.1,73.6,111.1,74.3C111.1,75,111.6,75.5,112.3,75.5L114.4,75.5C114.5,75.5,114.6,75.5,114.8,75.5L118.4,75.5C119.1,75.5,119.6,75,119.6,74.3C119.6,73.6,119.1,73.1,118.4,73.1L116.3,73.1L117,70.7C117.1,70.7,117.1,70.7,117.2,70.7C117.3,70.7,117.4,70.7,117.7,70.6L130.7,65.9L141.4,65.9L141.4,73.2L140.2,73.2C139.5,73.2,139,73.7,139,74.4C139,75.1,139.5,75.6,140.2,75.6L145,75.6C145.7,75.6,146.2,75.1,146.2,74.4C146.2,73.7,145.7,73.2,145,73.2L143.8,73.2L143.8,65.9L154.7,65.9L167.7,70.6C167.8,70.7,167.9,70.7,168.1,70.7C168.1,70.7,168.1,70.7,168.2,70.7L168.9,73.1L166.9,73.1C166.2,73.1,165.7,73.6,165.7,74.3C165.7,75,166.2,75.5,166.9,75.5L170.5,75.5L170.7,75.5L172.9,75.5C173.6,75.5,174.1,75,174.1,74.3C174.1,73.6,173.5,73.2,172.8,73.2ZM155.8,54.4L163.1,57.6L155.8,62.5L155.8,54.4ZM131.6,10.7C131.6,10.5,131.8,10.2,132.1,10.2L152.9,10.2C153.1,10.2,153.4,10.4,153.4,10.7L153.4,12.6L131.6,12.6L131.6,10.7ZM125.5,46.5C124.2,46.5,123.1,45.4,123.1,44.1L123.1,17.5C123.1,16.2,124.2,15.1,125.5,15.1L129.1,15.1L155.7,15.1L159.3,15.1C160.6,15.1,161.7,16.2,161.7,17.5L161.7,44.1C161.7,45.4,160.6,46.5,159.3,46.5L155.7,46.5L129.1,46.5L125.5,46.5L125.5,46.5ZM153.4,49L153.4,51.4L131.6,51.4L131.6,49L153.4,49ZM129.2,62.4L122,57.6L129.2,54.4L129.2,62.4ZM120.1,59.3L127.6,64.3L117.6,67.9L120.1,59.3ZM153.4,63.5L131.6,63.5L131.6,53.8L153.4,53.8L153.4,63.5ZM157.5,64.4L164.8,59.5L167.2,67.9L157.5,64.4Z" fill="rgb(255,255,255)" stroke="none" stroke-width="1"/><path id="esvqoVF5wmx15" d="M135.2,59.9C135.9,59.9,136.4,59.4,136.4,58.7C136.4,58,135.9,57.5,135.2,57.5C134.5,57.5,134,58,134,58.7C134,59.4,134.5,59.9,135.2,59.9Z" fill="rgb(255,255,255)" stroke="none" stroke-width="1"/><path id="esvqoVF5wmx16" d="M140.1,59.9C140.8,59.9,141.3,59.4,141.3,58.7C141.3,58,140.8,57.5,140.1,57.5C139.4,57.5,138.9,58,138.9,58.7C138.9,59.4,139.3,59.9,140.1,59.9Z" fill="rgb(255,255,255)" stroke="none" stroke-width="1"/><path id="esvqoVF5wmx17" d="M144.9,59.9C145.6,59.9,146.1,59.4,146.1,58.7C146.1,58,145.6,57.5,144.9,57.5C144.2,57.5,143.7,58,143.7,58.7C143.7,59.4,144.2,59.9,144.9,59.9Z" fill="rgb(255,255,255)" stroke="none" stroke-width="1"/><path id="esvqoVF5wmx18" d="M149.8,59.9C150.5,59.9,151,59.4,151,58.7C151,58,150.5,57.5,149.8,57.5C149.1,57.5,148.6,58,148.6,58.7C148.5,59.4,149,59.9,149.8,59.9Z" fill="rgb(255,255,255)" stroke="none" stroke-width="1"/><path id="esvqoVF5wmx19" d="M153.4,30.8C153.4,24.7,148.6,19.9,142.5,19.9C136.4,19.9,131.6,24.7,131.6,30.8C131.6,36.9,136.4,41.7,142.5,41.7C148.5,41.7,153.4,36.8,153.4,30.8ZM142.5,39.3C137.8,39.3,134,35.5,134,30.8C134,26.1,137.8,22.3,142.5,22.3C147.2,22.3,151,26.1,151,30.8C151,35.5,147.2,39.3,142.5,39.3Z" fill="rgb(255,255,255)" stroke="none" stroke-width="1"/><path id="esvqoVF5wmx20" d="M142.5,24.7C139.1,24.7,136.4,27.4,136.4,30.8C136.4,34.2,139.1,36.9,142.5,36.9C145.9,36.9,148.6,34.2,148.6,30.8C148.6,27.4,145.9,24.7,142.5,24.7ZM142.5,34.4C140.4,34.4,138.9,32.8,138.9,30.8C138.9,28.8,140.5,27.2,142.5,27.2C144.5,27.2,146.1,28.8,146.1,30.8C146.1,32.9,144.5,34.4,142.5,34.4Z" fill="rgb(255,255,255)" stroke="none" stroke-width="1"/><path id="esvqoVF5wmx21" d="M126.7,17.5C126,17.5,125.5,18,125.5,18.7C125.5,19.4,126,19.9,126.7,19.9C127.4,19.9,127.9,19.4,127.9,18.7C127.9,18,127.5,17.5,126.7,17.5Z" fill="rgb(255,255,255)" stroke="none" stroke-width="1"/><path id="esvqoVF5wmx22" d="M134,19.9C134.7,19.9,135.2,19.4,135.2,18.7C135.2,18,134.7,17.5,134,17.5L131.6,17.5C130.9,17.5,130.4,18,130.4,18.7C130.4,19.4,130.9,19.9,131.6,19.9L134,19.9Z" fill="rgb(255,255,255)" stroke="none" stroke-width="1"/><path id="esvqoVF5wmx23" d="M158.2,44.1C158.9,44.1,159.4,43.6,159.4,42.9C159.4,42.2,158.9,41.7,158.2,41.7C157.5,41.7,157,42.2,157,42.9C157,43.6,157.5,44.1,158.2,44.1Z" fill="rgb(255,255,255)" stroke="none" stroke-width="1"/><path id="esvqoVF5wmx24" d="M153.4,41.7L151,41.7C150.3,41.7,149.8,42.2,149.8,42.9C149.8,43.6,150.3,44.1,151,44.1L153.4,44.1C154.1,44.1,154.6,43.6,154.6,42.9C154.6,42.2,154.1,41.7,153.4,41.7Z" fill="rgb(255,255,255)" stroke="none" stroke-width="1"/></g></g></g><g id="esvqoVF5wmx25"><g id="esvqoVF5wmx26"><path id="esvqoVF5wmx27" d="M676,150.1C675.6,150.1,675.5,149.9,675.4,149.5C675.2,144.9,675.1,141.7,674.8,137.6C674.8,137.2,674.9,137,675.2,137.1C675.7,137.1,676,137.1,676.6,137.1C677,137.1,677.2,137.2,677.5,137.5C678.8,138.9,679.6,139.8,680.8,141.5C680.8,139.9,680.8,139.1,680.6,137.8C680.5,137.4,680.7,137.2,681.1,137.3C682.1,137.3,682.6,137.4,683.7,137.4C684.1,137.4,684.4,137.6,684.4,138C684.8,142.1,683.9,145.3,683.9,149.9C683.9,150.3,683.8,150.5,683.4,150.5C682.6,150.4,682.2,150.4,681.4,150.4C681.1,150.4,680.9,150.2,680.9,149.8C680.9,148.9,680.8,148.5,680.8,147.6C679.8,146,679.3,145.2,678.2,143.5C678.3,146,678.3,147.4,678.5,149.7C678.5,150.1,678.4,150.3,678,150.3C677.3,150.1,676.9,150.1,676,150.1Z" fill="rgb(255,255,255)" stroke="none" stroke-width="1"/><path id="esvqoVF5wmx28" d="M686.4,150.6C686.1,150.6,685.9,150.4,685.9,149.9C686,145.4,687.3,142.2,687,138.1C687,137.7,687.2,137.5,687.6,137.6C691.1,137.8,693,138,696.6,138.3C697.1,138.3,697.3,138.5,697.3,138.9C697.2,139.6,697.1,140,696.9,140.9C696.8,141.3,696.5,141.5,696,141.5C694,141.3,693,141.2,691,141C690.9,141.6,690.8,141.8,690.7,142.4C692.1,142.5,692.7,142.6,694.1,142.7C694.5,142.7,694.7,143,694.5,143.4C694.2,144.2,694,144.6,693.7,145.4C693.5,145.9,693.3,146.1,692.9,146C691.7,145.9,691.1,145.8,689.9,145.7C689.7,146.4,689.6,146.7,689.5,147.3C691.1,147.5,691.9,147.5,693.5,147.7C693.9,147.7,693.9,148,693.8,148.4C693.5,149.3,693.3,149.7,693.1,150.5C693,150.9,692.8,151.1,692.5,151.1C690.1,150.9,688.9,150.8,686.4,150.6Z" fill="rgb(255,255,255)" stroke="none" stroke-width="1"/><path id="esvqoVF5wmx29" d="M695,151.5C694.7,151.5,694.6,151.3,694.7,150.8C696,146.4,698.9,143.2,699.6,139.1C699.7,138.7,699.9,138.6,700.4,138.6C704,139,705.8,139.2,709,139.8C709.4,139.9,709.6,140.1,709.5,140.5C709.3,141.2,709.1,141.6,708.6,142.4C708.4,142.8,708,143,707.6,142.9C705.7,142.6,704.8,142.4,702.8,142.2C702.5,142.7,702.4,143,702,143.6C703.3,143.8,704,143.9,705.3,144.1C705.7,144.2,705.8,144.4,705.4,144.9C704.8,145.7,704.5,146.1,704,146.9C703.7,147.4,703.4,147.5,703,147.5C701.8,147.3,701.2,147.2,700,147C699.6,147.6,699.4,148,699.1,148.6C700.7,148.8,701.5,149,703.2,149.2C703.6,149.3,703.6,149.5,703.3,149.9C702.8,150.7,702.5,151.1,702.2,151.9C702,152.3,701.8,152.5,701.5,152.4C698.8,152,697.5,151.8,695,151.5Z" fill="rgb(255,255,255)" stroke="none" stroke-width="1"/><path id="esvqoVF5wmx30" d="M704.2,152.9C703.8,152.8,703.7,152.6,703.9,152.2C705.8,148,710.1,144.9,711.4,140.9C711.5,140.5,711.7,140.4,712.1,140.5C714.3,141,715.1,141.1,716.8,141.5C719,141.9,719.7,143,718.3,145.4C717,147.5,716,148.7,714.7,150.8C713.2,153.2,711.9,154,709.4,153.7C707.4,153.4,706.3,153.2,704.2,152.9ZM708.9,150.2C709.6,150.3,710,150.4,710.7,150.5C711.2,150.6,711.5,150.3,712,149.7C713.2,148,714,147.1,715.2,145.4C715.6,144.8,715.6,144.5,715.1,144.5C714.5,144.4,714.2,144.3,713.5,144.2C711.9,146.5,710.6,147.8,708.9,150.2Z" fill="rgb(255,255,255)" stroke="none" stroke-width="1"/><path id="esvqoVF5wmx31" d="M718.7,154.7C718.3,154.7,718.2,154.5,718.3,154.1C719.6,150.2,722.4,147.2,723.7,143.4C723.8,143,724,142.9,724.2,142.9C724.9,143,725.2,143.1,725.9,143.2C726.2,143.3,726.3,143.4,726.1,143.8C725.7,145.1,725.4,145.8,724.7,147.3C725.5,147.4,725.9,147.5,726.7,147.6C727.3,146.1,727.6,145.4,727.9,144.1C728,143.7,728.1,143.6,728.4,143.6C729.1,143.7,729.4,143.8,730.1,143.9C730.4,144,730.5,144.1,730.4,144.5C729.6,148.4,728.2,151.4,727.5,155.2C727.4,155.6,727.2,155.7,726.9,155.6C726,155.5,725.5,155.4,724.6,155.3C724.2,155.2,724.1,155.1,724.2,154.7C724.5,153.4,724.8,152.7,725.4,151.1C724.5,151,724,150.9,723.2,150.8C722.5,152.3,722.2,153.1,721.8,154.4C721.7,154.8,721.5,154.9,721.1,154.9C720.1,154.8,719.6,154.8,718.7,154.7Z" fill="rgb(255,255,255)" stroke="none" stroke-width="1"/><path id="esvqoVF5wmx32" d="M730.2,156.3C729.8,156.2,729.7,156,729.7,155.7C730.3,151.9,731.4,148.9,732,145C732.1,144.6,732.2,144.5,732.5,144.6C734.6,145.1,735.3,145.3,738.4,146C738.8,146.1,739,146.3,739,146.7C739,147.4,739,147.8,738.9,148.6C738.9,149,738.7,149.2,738.3,149.1C736.4,148.6,735.8,148.5,734.4,148.1C734.3,148.6,734.3,148.9,734.2,149.4C735.3,149.6,735.8,149.8,736.9,150.1C737.3,150.2,737.4,150.4,737.4,150.9C737.4,151.7,737.3,152,737.3,152.8C737.3,153.2,737.1,153.4,736.7,153.3C735.5,153,734.9,152.9,733.7,152.6C733.6,153.2,733.6,153.5,733.5,154.1C735.2,154.5,736,154.7,738,155.2C738.5,155.3,738.6,155.6,738.6,156C738.6,156.8,738.6,157.2,738.5,157.8C738.5,158.2,738.3,158.3,737.8,158.2C734.4,157.1,733.1,156.8,730.2,156.3Z" fill="rgb(255,255,255)" stroke="none" stroke-width="1"/><path id="esvqoVF5wmx33" d="M741.4,158.9C740.9,158.8,740.7,158.6,740.7,158.2C740.8,154.3,740.8,151.2,740.9,147.1C740.9,146.7,741.1,146.6,741.5,146.7C742.6,146.9,743.1,147,744.2,147.3C744.6,147.4,744.8,147.6,744.8,148C744.8,151.2,744.8,153.3,744.8,156.7C745.8,156.9,746.3,157,747.3,157.2C747.3,156.1,747.3,155.5,747.3,154.3C747.3,153.8,747.5,153.7,748,153.8C749.1,154,749.6,154.1,750.6,154.3C751.1,154.4,751.3,154.6,751.3,155.1C751.3,157.4,751.3,158.5,751.3,160.5C751.3,160.9,751.1,161,750.7,160.9C747,160.1,745.2,159.7,741.4,158.9Z" fill="rgb(255,255,255)" stroke="none" stroke-width="1"/><path id="esvqoVF5wmx34" d="M754,161.2C753.6,161.1,753.4,160.9,753.4,160.6C753.4,156.7,753.5,153.6,753.5,149.4C753.5,149,753.7,148.9,754.2,148.9C756.5,149.3,757.7,149.5,759.9,149.8C763.3,150.3,764.2,151.7,764,153.6C763.9,154.5,763.9,154.9,763.8,155.8C763.6,157.8,762.6,159.1,759.4,158.7C758.6,158.6,758.2,158.5,757.4,158.4C757.4,159.5,757.3,160.1,757.3,161.1C757.3,161.5,757.1,161.6,756.7,161.5C755.6,161.5,755.1,161.4,754,161.2ZM757.5,155.4C758.2,155.5,758.5,155.5,759.1,155.6C759.8,155.7,760,155.3,760,154.8C760,154.4,760,154.2,760.1,153.9C760.1,153.4,760,153,759.3,152.9C758.6,152.8,758.3,152.8,757.7,152.7C757.6,153.7,757.5,154.3,757.5,155.4Z" fill="rgb(255,255,255)" stroke="none" stroke-width="1"/><path id="esvqoVF5wmx35" d="M767.3,159C766.9,159,766.7,158.9,766.7,158.4C766.7,157.5,766.6,157.1,766.6,156.1C766.6,155.6,766.8,155.5,767.2,155.5C768.6,155.5,769.3,155.4,770.6,155.4C770.9,155.4,771.1,155.3,771.1,154.9C771.1,154.6,771,154.4,770.7,154.4C768.9,154.2,767.9,154.1,766,153.8C765.6,153.7,765.4,153.5,765.4,153.1C765.5,152.3,765.5,151.9,765.6,151.1C765.6,150.7,765.8,150.6,766.3,150.6C768.6,150.9,769.7,151.1,771.9,151.4C774.1,151.7,775.1,152.7,774.9,154.5C774.8,155.2,774.7,155.5,774.6,156.2C774.3,158,773.3,158.6,771.8,158.7C770,158.9,769.1,159,767.3,159ZM766.5,162.6C766.1,162.6,765.9,162.4,765.9,162.1C766,161.4,766,161,766.1,160.1C766.1,159.7,766.3,159.5,766.8,159.6C768,159.7,768.6,159.8,769.8,159.8C770.2,159.8,770.4,160,770.3,160.4C770.2,161.2,770.2,161.6,770.1,162.3C770.1,162.6,769.9,162.8,769.5,162.8C768.3,162.7,767.7,162.7,766.5,162.6Z" fill="rgb(255,255,255)" stroke="none" stroke-width="1"/></g></g><path id="esvqoVF5wmx36" d="" fill="rgb(237,228,228)" stroke="rgb(0,0,0)" stroke-width="0.5" stroke-miterlimit="10"/><g id="esvqoVF5wmx37" transform="matrix(1 0 0 1 -109.136 -521.155)"><path id="esvqoVF5wmx38" d="M899.1,680.9C899.1,680.9,902.1,699,887.8,709.4C873.5,719.8,869.8,721,869.8,721" fill="none" stroke="rgb(255,255,255)" stroke-width="5" stroke-linecap="round"/><line id="esvqoVF5wmx39" x1="874.5" y1="710.8" x2="869.8" y2="721" fill="none" stroke="rgb(255,255,255)" stroke-width="5" stroke-linecap="round"/><path id="esvqoVF5wmx40" d="M881.2,721L869.8,721" fill="none" stroke="rgb(255,255,255)" stroke-width="5" stroke-linecap="round"/></g><g id="esvqoVF5wmx41"><path id="esvqoVF5wmx42" d="M373.6,29.2C372,28.7,370.3,29.6,369.7,31.2C369.2,32.8,370.1,34.5,371.7,35.1C373.3,35.6,375,34.7,375.6,33.1C376.1,31.4,375.2,29.7,373.6,29.2ZM382,29.7C380.4,29.2,378.7,30.1,378.1,31.7C377.6,33.3,378.5,35,380.1,35.6C381.7,36.1,383.4,35.2,384,33.6C384.5,32,383.6,30.3,382,29.7ZM366.4,24.7C364.8,24.2,363.1,25.1,362.5,26.7C362,28.3,362.9,30,364.5,30.6C366.1,31.1,367.8,30.2,368.4,28.6C368.9,26.9,368,25.2,366.4,24.7Z" fill="rgb(50,77,91)" stroke="none" stroke-width="1"/><path id="esvqoVF5wmx43" d="M367.7,16.9C373.6,15.5,381.6,18.1,385.6,22.7C389.6,27.3,387.9,32.3,382,33.7C376.1,35.1,368.1,32.5,364.1,27.9C360.1,23.3,361.8,18.3,367.7,16.9Z" fill="rgb(244,180,89)" stroke="none" stroke-width="1"/><path id="esvqoVF5wmx44" d="M367.4,10.8C374.6,9.2,384.5,12.4,389.4,17.9C394.3,23.5,392.4,29.3,385.2,31C378,32.6,368.1,29.4,363.2,23.9C358.2,18.3,360.1,12.4,367.4,10.8Z" fill="rgb(50,77,91)" stroke="none" stroke-width="1"/><path id="esvqoVF5wmx45" d="M380.8,6.8C386.2,8.5,389.1,14.3,387.4,19.7C385.7,25.1,380.5,26.1,375.2,24.3C369.8,22.6,366.3,18.7,368,13.4C369.7,8,375.5,5.1,380.8,6.8Z" fill="rgb(228,231,231)" stroke="none" stroke-width="1"/><path id="esvqoVF5wmx46" d="M381.1,25C381.5,24.5,381.8,23.9,382,23.3L383.6,18.4C384.6,15.2,382.9,11.7,379.7,10.7C376.5,9.7,373,11.4,372,14.6L370.4,19.5C370.2,20.1,370.1,20.8,370.1,21.4C371.4,22.7,373.2,23.6,375.3,24.3C377.2,25,379.2,25.2,381.1,25Z" fill="rgb(61,179,158)" stroke="none" stroke-width="1"/><path id="esvqoVF5wmx47" d="M378.3,14.6C379.9,15.1,380.8,16.9,380.3,18.5C379.8,20.1,378,21,376.4,20.5C374.8,20,373.9,18.2,374.4,16.6C375,14.9,376.7,14.1,378.3,14.6Z" fill="rgb(255,255,255)" stroke="none" stroke-width="1"/><path id="esvqoVF5wmx48" d="M377.7,16.5C378.2,16.7,378.5,17.3,378.4,17.8C378.2,18.3,377.7,18.6,377.1,18.5C376.6,18.3,376.3,17.8,376.4,17.2C376.6,16.6,377.1,16.3,377.7,16.5Z" fill="rgb(50,77,91)" stroke="none" stroke-width="1"/></g><polygon id="esvqoVF5wmx49" points="0,-8.311135 2.442581,-3.361925 7.904359,-2.568282 3.952179,1.284141 4.885162,6.723849 0,4.155567 -4.885162,6.723849 -3.952179,1.284141 -7.904359,-2.568282 -2.442581,-3.361925 0,-8.311135" transform="matrix(-0.558991 0.765822 -0.778842 -0.568494 226.591884 16.190752)" opacity="0" fill="rgb(251,246,150)" stroke="none" stroke-width="0"/><polygon id="esvqoVF5wmx50" points="0,-8.311135 2.442581,-3.361925 7.904359,-2.568282 3.952179,1.284141 4.885162,6.723849 0,4.155567 -4.885162,6.723849 -3.952179,1.284141 -7.904359,-2.568282 -2.442581,-3.361925 0,-8.311135" transform="matrix(-0.721959 0.193934 -0.225324 -0.838815 701.88854 52.934281)" opacity="0" fill="rgb(251,246,150)" stroke="none" stroke-width="0"/><script><![CDATA[(function(s,i,u,o,c,w,d,t,n,x,e,p){w[o]=w[o]||{};w[o][s]=w[o][s]||[];w[o][s].push(i);e=d.createElementNS(n,t);e.async=true;e.setAttributeNS(x,'href',[u,s,'.','j','s','?','v','=',c].join(''));e.setAttributeNS(null,'src',[u,s,'.','j','s'].join(''));p=d.getElementsByTagName(t)[0];p.parentNode.insertBefore(e,p);})('5c7f360c',{"root":"esvqoVF5wmx1","animations":[{"elements":{"esvqoVF5wmx49":{"opacity":[{"t":0,"v":0},{"t":800,"v":0.24,"e":[0.47,0,0.745,0.715]},{"t":1600,"v":0,"e":[0.42,0,1,1]},{"t":3000,"v":0,"e":[0,0,0.58,1]}]},"esvqoVF5wmx50":{"opacity":[{"t":0,"v":0},{"t":400,"v":0},{"t":1700,"v":0.61,"e":[0.42,0,0.58,1]},{"t":3000,"v":0,"e":[0,0,0.58,1]}]}},"s":"MPDA1MzkyMzk3Ykg4YzGg5TFY3ODhiODA4NjgB1Mzk1MTRhNDc0NzQ3LNDMzOTdiODA4OTdjNA2E4YjgwODY4NTM5NTME0ODQzMzk4MDhiN2MF4OTc4RjhiRzgwODZLXODU4YTM5NTE0NzQzMBzk3ZDgwODM4MzM5NTQE0ODQzMzk3ODgzOGIU3Yzg5ODVCNzg4YjdjDMzk1MUc3ZDc4ODM4YHTdjNDMzOThhODc3YzJdjTDdiMzk1MTQ4OTQJ/"}],"options":"MCDAxMDg4MmY4MDgxNmWU3ZkY4MU4yZjQ3MmZPZNzk3YzZlNzEyZjhhJ"},'https://cdn.svgator.com/ply/','__SVGATOR_PLAYER__','2021-10-11',window,document,'script','http://www.w3.org/2000/svg','http://www.w3.org/1999/xlink')]]></script></svg>