<svg id="eePKim0jYVr1" xmlns="http://www.w3.org/2000/svg" xmlns:xlink="http://www.w3.org/1999/xlink" viewBox="0 0 638 489.1" shape-rendering="geometricPrecision" text-rendering="geometricPrecision"><path id="eePKim0jYVr2" d="M504,308C428.9,308,370,294.4,370,277C370,266.6,390.9,257.3,427.2,251.5C427.7,251.4,428.3,251.8,428.3,252.3C428.3,252.8,428,253.4,427.5,253.4C427.5,253.4,427.5,253.4,427.5,253.4C393.2,258.9,372,267.9,372,276.9C372,292.6,432.4,305.9,504,305.9C575.6,305.9,636,292.6,636,276.9C636,267.8,614.6,258.8,580.1,253.3C579.6,253.2,579.2,252.7,579.3,252.2C579.4,251.7,579.9,251.3,580.4,251.4C617,257.2,638,266.5,638,277C638,294.4,579.1,308,504,308Z" transform="matrix(1 -0.000729 0.000729 1 -0.203846 0.367643)" fill="rgb(204,204,204)" stroke="none" stroke-width="1"/><path id="eePKim0jYVr3" d="M437.5,313.8C458.9,350.5,506.1,362.9,542.8,341.5C554.4,334.7,564,325.1,570.7,313.5C526.3,316.1,481.8,316.2,437.5,313.8Z" fill="rgb(230,230,230)" stroke="none" stroke-width="1"/><path id="eePKim0jYVr4" d="M578,292.1C589.7,251.2,566,208.6,525.1,196.9C484.2,185.2,441.6,208.9,429.9,249.8C425.9,263.9,426,278.8,430.1,292.8C479.3,299.1,529,298.8,578,292.1Z" transform="matrix(0.999539 0.030364 -0.030364 0.999539 7.690527 -15.189587)" fill="rgb(230,230,230)" stroke="none" stroke-width="1"/><path id="eePKim0jYVr5" d="M119.5,9C119.5,4,115.5,0,110.5,0C105.5,0,101.5,4,101.5,9C101.5,12.6,103.7,15.9,107,17.3C110.328913,24.49431,108.024649,47.515129,107,64L114,64L114,17.3C117.3,15.9,119.5,12.6,119.5,9Z" transform="matrix(1 0 0 1 0 15.292163)" fill="rgb(204,204,204)" stroke="none" stroke-width="1"/><g id="eePKim0jYVr6" transform="matrix(0.975164 0.221485 -0.221485 0.975164 51.826775 -33.502923)"><path id="eePKim0jYVr7" d="M170,233L170,233C158.9,233,150,224,150,213C150,212.8,150,212.5,150,212.3C150.4,201.7,159.6,193.1,170.5,193.1L225.4,193.1L270.6,173.1C273.1,172,276.1,173.1,277.2,175.6L289.3,203C290.4,205.5,289.3,208.5,286.8,209.6L242.3,229.3C237.9,231.3,233.1,232.3,228.3,232.3L170,233Z" fill="rgb(204,204,204)" stroke="none" stroke-width="1"/><circle id="eePKim0jYVr8" r="18" transform="matrix(1 0 0 1 292 184)" fill="rgb(230,230,230)" stroke="none" stroke-width="1"/></g><path id="eePKim0jYVr9" d="M36.8,338.3C36.5,338.3,36.3,338.3,36,338.2L6.4,333.2L6.4,333.2C4,332.8,2.3,330.5,2.7,328C2.7,328,2.7,327.9,2.7,327.9L25.8,209.8C27.6,199.2,37.7,192.1,48.3,193.9C58.9,195.7,66,205.8,64.2,216.4L41.2,334.7C40.8,336.8,38.9,338.3,36.8,338.3Z" fill="rgb(204,204,204)" stroke="none" stroke-width="1"/><circle id="eePKim0jYVr10" r="18" transform="matrix(1 0 0 1 21 346)" fill="rgb(230,230,230)" stroke="none" stroke-width="1"/><circle id="eePKim0jYVr11" r="67" transform="matrix(1 0 0 1 108.3 124.7)" fill="rgb(230,230,230)" stroke="none" stroke-width="1"/><circle id="eePKim0jYVr12" r="67" transform="matrix(1 0 0 1 108.3 124.7)" fill="rgb(230,230,230)" stroke="none" stroke-width="1"/><circle id="eePKim0jYVr13" r="51" transform="matrix(1 0 0 1 108.3 124.7)" fill="rgb(223,3,33)" stroke="none" stroke-width="1"/><path id="eePKim0jYVr14" d="M114.2,146.1C110.9,146,106.8,145.9,103.6,143.6C101.7,142.1,100.5,139.9,100.4,137.5C100.3,135.8,101,134.1,102.3,133C104,131.6,106.4,131.3,109,132L106.3,112.3L108.3,112L111.5,135.2L109.8,134.4C107.9,133.5,105.2,133.1,103.6,134.5C102.8,135.2,102.4,136.3,102.4,137.4C102.5,139.2,103.4,140.8,104.8,141.9C107.3,143.7,110.5,143.9,114.3,144L114.2,146.1Z" fill="rgb(47,46,65)" stroke="none" stroke-width="1"/><rect id="eePKim0jYVr15" width="10.8" height="2" rx="0" ry="0" transform="matrix(1 0 0 1 85.7 114)" fill="rgb(47,46,65)" stroke="none" stroke-width="1"/><rect id="eePKim0jYVr16" width="10.8" height="2" rx="0" ry="0" transform="matrix(1 0 0 1 119.7 114)" fill="rgb(47,46,65)" stroke="none" stroke-width="1"/><path id="eePKim0jYVr17" d="M74,125C74,99.8,92.4,78.4,117.3,74.6C89.5,69.9,63.2,88.6,58.5,116.4C53.8,144.2,72.5,170.5,100.3,175.2C105.7,176.1,111.1,176.1,116.5,175.3C91.9,171.1,74,149.9,74,125Z" opacity="0.2" fill="rgb(0,0,0)" stroke="none" stroke-width="1"/><path id="eePKim0jYVr18" d="M159.3,338.5L57.3,338.5C48.2,338.5,40.8,331.1,40.8,322L40.8,207C40.8,197.9,48.2,190.5,57.3,190.5L72.8,190.5L72.8,195C72.8,201.3,78,206.5,84.3,206.5L132.3,206.5C138.6,206.5,143.8,201.3,143.8,195L143.8,190.5L159.3,190.5C168.4,190.5,175.8,197.9,175.8,207L175.8,322C175.8,331.1,168.4,338.5,159.3,338.5Z" fill="rgb(230,230,230)" stroke="none" stroke-width="1"/><path id="eePKim0jYVr19" d="M173,449L133,449L133,402.8L80.7,322.7L114.2,300.8L166.2,380.6C169.9,386.3,172,393,172.1,399.8L173,449Z" fill="rgb(230,230,230)" stroke="none" stroke-width="1"/><path id="eePKim0jYVr20" d="M79.4,475.6L41.1,468.3L63,353.3L101.3,360.6L79.4,475.6Z" fill="rgb(230,230,230)" stroke="none" stroke-width="1"/><path id="eePKim0jYVr21" d="M151.3,373.5L65.3,373.5C60.6,373.5,56.8,369.7,56.8,365L56.8,333C56.8,328.3,60.6,324.5,65.3,324.5L151.3,324.5C156,324.5,159.8,328.3,159.8,333L159.8,365C159.8,369.7,156,373.5,151.3,373.5Z" fill="rgb(230,230,230)" stroke="none" stroke-width="1"/><path id="eePKim0jYVr22" d="M180,467.5L133.5,467.5L133.5,436.5L180,436.5C188.6,436.5,195.5,443.4,195.5,452C195.5,460.6,188.5,467.5,180,467.5Z" fill="rgb(204,204,204)" stroke="none" stroke-width="1"/><path id="eePKim0jYVr23" d="M81.5,488.5L36.8,475.7L45.3,445.9L90,458.7C98.2,461.1,103,469.6,100.6,477.9C98.3,486.1,89.7,490.9,81.5,488.5Z" fill="rgb(204,204,204)" stroke="none" stroke-width="1"/><path id="eePKim0jYVr24" d="M157,241.5L120,241.5C118.1,241.5,116.5,239.9,116.5,238C116.5,236.1,118.1,234.5,120,234.5L157,234.5C158.9,234.5,160.5,236.1,160.5,238C160.5,239.9,158.9,241.5,157,241.5Z" fill="rgb(255,255,255)" stroke="none" stroke-width="1"/><path id="eePKim0jYVr25" d="M157,254L120,254C118.1,254,116.5,252.4,116.5,250.5C116.5,248.6,118.1,247,120,247L157,247C158.9,247,160.5,248.6,160.5,250.5C160.5,252.4,158.9,254,157,254Z" fill="rgb(255,255,255)" stroke="none" stroke-width="1"/><g id="eePKim0jYVr26" transform="matrix(0.975878 0 0 0.913994 9.399137 11.292931)"><path id="eePKim0jYVr27" d="M297.5,256.5C294.2,256.5,291.5,253.8,291.5,250.5L291.5,34.5C291.5,31.2,294.2,28.5,297.5,28.5C300.8,28.5,303.5,31.2,303.5,34.5L303.5,250.5C303.5,253.8,300.8,256.5,297.5,256.5Z" fill="rgb(63,61,86)" stroke="none" stroke-width="1"/><path id="eePKim0jYVr28" d="M486.1,28.1C480.8,23.5,462.7,9.1,439.4,6.5C421.9,4.6,401.5,9.2,381.4,29.3C365.2,45.5,350,53.1,336,52.1C321.8,51,312.3,40.9,308,35C307.4,34.1,306.2,33.8,305.2,34.1C304.2,34.4,303.5,35.4,303.5,36.5L303.5,111.2C303.5,112.2,304.1,113,304.9,113.5C310.3,116.1,330,124.6,349.7,124.6C361.3,124.6,372.9,121.6,381.8,112.8C381.9,112.7,382,112.6,382.1,112.6C397.8,97.4,432.3,100.5,457.5,105.5C467.9,107.6,476.7,109.9,482,111.5C484.4,112.2,486.9,110.8,487.6,108.4C487.7,108,487.8,107.6,487.8,107.1L487.8,31.5C487.6,30.2,487.1,29,486.1,28.1Z" transform="matrix(1 0 0 1 2.006288 5.17713)" fill="rgb(223,3,33)" stroke="none" stroke-width="1"/><g id="eePKim0jYVr29"><g id="eePKim0jYVr30"><path id="eePKim0jYVr31" d="M317.2,93.7C312.3,91.1,309.7,87.6,309.8,82C309.9,77,310,73.9,310.1,68.9C310.2,63.3,312.4,63.8,317.3,66.3C320.2,67.7,321.6,68.3,324.4,69.2C325.1,69.4,325.5,69.8,325.5,70.6C325.6,72.1,325.6,73,325.6,74.8C325.6,75.8,325.3,76.1,324.6,75.9C322.3,75.2,321.1,74.7,318.8,73.6C317.6,73,317,73.3,317,74.7C316.9,78.6,316.8,80.9,316.8,84.8C316.8,86.2,317.3,87.1,318.6,87.7C321,88.8,322.1,89.3,324.5,90.1C325.2,90.3,325.5,90.9,325.5,91.8C325.5,93.6,325.5,94.5,325.6,96C325.6,96.8,325.3,97,324.6,96.7C321.5,95.8,320.1,95.2,317.2,93.7Z" fill="rgb(255,255,255)" stroke="none" stroke-width="1"/><path id="eePKim0jYVr32" d="M333.7,98.8C333,98.7,332.6,98.4,332.6,97.6C332.4,91.5,332.7,85.6,332.8,77.7C331.1,77.5,330.3,77.4,328.6,77C327.9,76.9,327.6,76.3,327.6,75.4C327.6,73.5,327.6,72.7,327.5,71.2C327.5,70.4,327.8,70.2,328.5,70.4C334.5,71.6,337.5,71.6,343.6,70.9C344.3,70.8,344.6,71.1,344.7,71.9C344.7,73.4,344.8,74.3,344.8,76.2C344.8,77.2,344.5,77.7,343.8,77.8C342.1,78,341.3,78,339.6,78.1C339.6,86.1,339.3,92,339.5,98.2C339.5,99,339.2,99.3,338.5,99.3C336.5,99,335.6,99,333.7,98.8Z" fill="rgb(255,255,255)" stroke="none" stroke-width="1"/><path id="eePKim0jYVr33" d="M348.6,98.4C347.9,98.5,347.5,98.2,347.5,97.4C347.3,89.2,347.7,79.5,347.5,71.3C347.5,70.5,347.8,70.2,348.5,70C353.7,69.1,356.3,68.5,361.7,67.1C362.5,66.9,362.8,67.1,362.8,67.9C362.8,69.4,362.8,70.3,362.8,72.2C362.8,73.2,362.5,73.8,361.7,74C358.6,74.8,357.1,75.1,354.1,75.8C354.1,77.5,354.1,78.4,354.1,80.3C356.1,79.9,357.2,79.6,359.2,79.2C359.9,79,360.3,79.4,360.3,80.6C360.3,82.8,360.3,83.9,360.3,86C360.3,87.1,360,87.7,359.2,87.8C357.1,88.3,356.1,88.5,354.1,88.9C354.1,92.3,354.1,93.9,354.2,96.4C354.2,97.2,353.9,97.6,353.2,97.7C351.3,98.1,350.4,98.2,348.6,98.4Z" fill="rgb(255,255,255)" stroke="none" stroke-width="1"/><path id="eePKim0jYVr34" d="M373.8,92.6C373.3,92.8,373,92.7,372.8,91.9C372,88.9,371.8,86.6,371.1,82.3C370.7,79.6,370.5,78.8,370.6,75.7C370.8,70.6,370.9,68,370.9,64.6C370.9,63.8,371.2,63.3,371.8,62.9C373.4,61.9,374.2,61.4,375.7,60.2C376.3,59.8,376.6,59.8,376.6,60.7C376.5,64.5,376.3,67.5,375.9,73.3C375.8,74,375.9,74.6,375.9,75.4C376.1,78.1,376.2,79.6,376.3,82.2C376.3,82.8,376.4,83,376.6,82.9C376.7,82.9,376.7,82.8,376.8,82.8C377,82.7,377.1,82.4,377.2,81.7C377.8,78.6,378.1,76.9,378.8,73.4C379,72.5,379.1,71.8,379.2,71C379.7,64.9,380,61.7,380.2,57.7C380.2,56.8,380.5,56.3,381.1,55.8C382.5,54.5,383.2,53.9,384.6,52.6C385.2,52.1,385.4,52.2,385.3,53.2C385,57.3,384.6,60.6,383.9,67C383.5,70.8,383.1,72.2,382.3,76C380.9,82.3,380.3,85.3,379.4,89.3C379.2,90.3,378.9,90.7,378.5,90.8C376.7,91.6,375.8,91.9,373.8,92.6Z" fill="rgb(255,255,255)" stroke="none" stroke-width="1"/><path id="eePKim0jYVr35" d="M383.5,87C383.7,85.1,383.8,83.9,384.1,81.3C384.3,80,384.5,79.2,385,78.9C385.8,78.4,386.1,78.2,386.9,77.7C387.9,69.8,388.7,64.4,389.7,56.4C388.8,57.1,388.4,57.4,387.5,58.1C387,58.5,386.8,58.1,387,56.7C387.3,54.1,387.4,52.9,387.6,50.9C387.7,49.9,387.9,49.3,388.5,48.8C392.3,45.4,394.3,43.8,398.7,41.3C399.3,40.9,399.6,41.1,399.5,42.2C399.3,44.2,399.2,45.5,398.8,48.3C398.6,49.8,398.2,50.6,397.6,51C396.6,51.6,396.1,51.9,395.1,52.5C394,60.7,393,66.4,391.9,74.6C392.8,74.1,393.3,73.8,394.3,73.3C394.9,73,395.1,73.5,394.9,74.9C394.5,77.7,394.4,78.9,394.2,80.9C394.1,81.9,393.8,82.4,393.1,82.8C388.7,85.2,387.1,86.2,384,87.8C383.6,88.3,383.4,88,383.5,87Z" fill="rgb(255,255,255)" stroke="none" stroke-width="1"/><path id="eePKim0jYVr36" d="M402.8,77.8C402.1,78.2,401.6,78.2,401.3,77.4C400.2,74.4,400.1,71.4,399.9,65.4C399.8,61.7,399.8,60.4,400.4,56.1C401.5,48.9,402,45.2,402.4,41C402.5,40,402.8,39.5,403.5,39.3C405.3,38.6,406.2,38.4,408.2,37.9C409,37.7,409.4,38,409.3,38.9C408.9,43.1,408.4,46.9,407.3,54.2C407.2,55.1,407.1,55.9,407.1,56.9C407.1,60.5,407.1,62.3,407.3,65.5C407.3,66.3,407.4,66.4,407.8,66.3C407.9,66.3,408,66.2,408.2,66.2C408.6,66.1,408.7,65.8,409,65C410.1,61.4,410.8,59.5,412,55.7C412.3,54.7,412.5,53.9,412.7,53C413.7,46,414.3,42.3,414.7,38.2C414.8,37.3,415.2,37,416.1,36.9C418.3,36.8,419.5,36.8,421.8,36.9C422.8,36.9,423.1,37.3,423,38.2C422.6,42,422.1,45.3,421.3,51.6C420.8,55.4,420.3,56.6,418.9,60.3C416.6,66.3,415.3,69.4,413.4,73.2C412.9,74.2,412.3,74.5,411.3,74.7C407.6,75.8,405.8,76.3,402.8,77.8Z" fill="rgb(255,255,255)" stroke="none" stroke-width="1"/><path id="eePKim0jYVr37" d="M425.7,73.1C424.6,73.1,424.1,72.9,424.2,72C425.4,60.9,426.6,49.8,427.8,38.7C427.9,37.8,428.4,37.6,429.3,37.7C436.5,38.7,440.4,39.7,447.7,42.2C448.7,42.5,449.1,43,449.1,43.8C449,45.4,449,46.3,449,48.4C449,49.5,448.5,49.9,447.5,49.6C443,48.2,440.7,47.7,436.1,46.8C436,48.3,435.9,49.2,435.8,50.8C439.1,51.3,440.7,51.7,444,52.5C445.1,52.8,445.5,53.4,445.5,54.8C445.5,57,445.5,58.2,445.4,60.5C445.4,61.8,444.9,62.3,443.8,62.1C440.3,61.5,438.6,61.2,435.1,60.9C435,62.8,434.9,63.7,434.8,65.4C439.8,65.8,442.4,66.1,447.3,67.1C448.4,67.3,448.9,68,448.9,69.1C448.9,71.2,448.9,72.1,448.8,73.7C448.8,74.5,448.2,74.7,447.1,74.5C438.6,73.1,434,72.8,425.7,73.1Z" fill="rgb(255,255,255)" stroke="none" stroke-width="1"/><path id="eePKim0jYVr38" d="M455.1,76.1C454,75.8,453.5,75.4,453.5,74.6C453.5,73,453.5,72.1,453.5,70C453.5,68.9,454,68.5,455,68.8C459.6,70.1,461.9,70.8,466,72.7C466.6,73,466.9,72.6,466.9,71.8C466.8,70.8,466.4,70.2,465.8,69.8C463.5,68.4,462.3,67.7,459.9,66.4C456.1,64.3,453.4,61.5,453.2,55.9C453.1,53.8,453.1,52.8,453.1,50.9C453,45.7,456.2,45.3,460.9,47.6C465,49.6,466.9,50.7,470.5,53.1C471.3,53.6,471.6,54.2,471.6,55.1C471.6,56.7,471.6,57.7,471.8,59.7C471.9,60.7,471.6,61,470.8,60.5C467.9,58.5,466.2,57.6,462.9,55.8C462.3,55.5,461.9,55.8,462,56.7C462.1,57.5,462.5,58.3,463.1,58.7C465.3,60.1,466.4,60.9,468.5,62.5C471.8,65,473.8,68.4,474.5,73.5C474.7,75.4,474.9,76.4,475,78.2C475.4,83.1,473,83.1,468.3,80.8C463.3,78.4,460.7,77.5,455.1,76.1Z" fill="rgb(255,255,255)" stroke="none" stroke-width="1"/></g></g></g><circle id="eePKim0jYVr39" r="9" transform="matrix(1 0 0 1 520 234)" fill="rgb(255,255,255)" stroke="none" stroke-width="1"/><ellipse id="eePKim0jYVr40" rx="9" ry="9" transform="matrix(0.1602 -0.9871 0.9871 0.1602 503.976611 332.957303)" fill="rgb(255,255,255)" stroke="none" stroke-width="1"/><circle id="eePKim0jYVr41" r="15" transform="matrix(1 0 0 1 475 265)" fill="rgb(255,255,255)" stroke="none" stroke-width="1"/><script><![CDATA[(function(s,i,u,o,c,w,d,t,n,x,e,p){w[o]=w[o]||{};w[o][s]=w[o][s]||[];w[o][s].push(i);e=d.createElementNS(n,t);e.async=true;e.setAttributeNS(x,'href',[u,s,'.','j','s','?','v','=',c].join(''));e.setAttributeNS(null,'src',[u,s,'.','j','s'].join(''));p=d.getElementsByTagName(t)[0];p.parentNode.insertBefore(e,p);})('5c7f360c',{"root":"eePKim0jYVr1","animations":[{"elements":{"eePKim0jYVr2":{"transform":{"data":{"o":{"x":504,"y":279.692291,"type":"corner"},"t":{"x":-504,"y":-279.692291}},"keys":{"r":[{"t":0,"v":-0.041786},{"t":1500,"v":-4.664183,"e":[0.445,0.05,0.55,0.95]},{"t":3000,"v":-0.041786,"e":[0.39,0.575,0.565,1]}],"s":[{"t":0,"v":{"x":1,"y":1}},{"t":3000,"v":{"x":1,"y":1}}]}}},"eePKim0jYVr5":{"transform":{"keys":{"o":[{"t":0,"v":{"x":110.5,"y":47.292163,"type":"corner"}},{"t":700,"v":{"x":102.762815,"y":45.897363,"type":"corner"},"e":[0.42,0,1,1]},{"t":2600,"v":{"x":108.170638,"y":45.897363,"type":"corner"},"e":[0.42,0,1,1]},{"t":3000,"v":{"x":110.5,"y":47.29,"type":"corner"}}],"r":[{"t":0,"v":0},{"t":700,"v":-12.818533},{"t":2600,"v":12.325796,"e":[0.42,0,1,1]},{"t":3000,"v":0}],"t":[{"t":0,"v":{"x":-110.5,"y":-32}},{"t":2000,"v":{"x":-110.5,"y":-47.292147}},{"t":3000,"v":{"x":-110.5,"y":-32}}]}}},"eePKim0jYVr6":{"transform":{"data":{"t":{"x":-175.299995,"y":-214.339585}},"keys":{"o":[{"t":0,"v":{"x":175.3,"y":214.339585,"type":"corner"}},{"t":1100,"v":{"x":160.469858,"y":211.330462,"type":"corner"},"e":[0,0,0.58,1]},{"t":1700,"v":{"x":178.141642,"y":219.173711,"type":"corner"},"e":[0.42,0,1,1]},{"t":3000,"v":{"x":175.3,"y":214.339585,"type":"corner"}}],"r":[{"t":0,"v":12.796264},{"t":1100,"v":-1.967633,"e":[0.42,0,1,1]},{"t":1700,"v":14.772841,"e":[0.42,0,1,1]},{"t":3000,"v":12.796264}]}}},"eePKim0jYVr26":{"transform":{"data":{"s":{"x":0.975878,"y":0.913994},"t":{"x":-389.649994,"y":-131.303995}},"keys":{"o":[{"t":0,"v":{"x":389.649994,"y":131.303995,"type":"corner"}},{"t":1100,"v":{"x":385.655412,"y":124.509276,"type":"corner"},"e":[0,0,0.58,1]},{"t":1700,"v":{"x":371.541339,"y":120.913457,"type":"corner"},"e":[0.39,0.575,0.565,1]},{"t":3000,"v":{"x":389.649994,"y":131.303995,"type":"corner"}}],"r":[{"t":0,"v":0},{"t":1100,"v":13,"e":[0.42,0,1,1]},{"t":1700,"v":-14.205847,"e":[0.42,0,1,1]},{"t":3000,"v":0}]}}},"eePKim0jYVr28":{"transform":{"data":{"o":{"x":397.656282,"y":70.531128,"type":"corner"},"t":{"x":-395.649994,"y":-65.353998}},"keys":{"s":[{"t":0,"v":{"x":1,"y":1}},{"t":1100,"v":{"x":1.038543,"y":1.117679},"e":[0.25,1,0.25,1]},{"t":1700,"v":{"x":1.02478,"y":0.916581},"e":[0.42,0,1,1]},{"t":3000,"v":{"x":1,"y":1}}]}}}},"s":"MXDA1MzhlMzU3Nzg4ODKU3NDg3N2M4MjgxMzUS0ZDQ2NDNKNDM0M1YzLZjM1Nzc3Yzg1Nzg3NSjg3RTdjODI4MUwzNTGRkNDRLM2YzNTdjODdUDNzg4NUc3NDg3N2M4SMjgxWTg2MzU0ZDQzMW2YzNTc5N2M3ZjdmRDSM1NGQ0NDNmMzU3NDdRmWTg3Nzg4NTgxNzQ4INzc4MzU0ZDc5NzQ3ZAjg2NzgzZjM1Qzg2ODUM3ODc4NzczNTRkNDQT5MA|"}],"options":"MGDAxMDg4MmY4MFQ4MTPZlN2Y4MTJmVzQ3MmYO3OTdjNmU3MVcyZjhhG"},'https://cdn.svgator.com/ply/','__SVGATOR_PLAYER__','2021-10-11',window,document,'script','http://www.w3.org/2000/svg','http://www.w3.org/1999/xlink')]]></script></svg>