<?xml version="1.0" encoding="utf-8"?>
<!-- Generator: Adobe Illustrator 25.3.1, SVG Export Plug-In . SVG Version: 6.00 Build 0)  -->
<svg version="1.1" id="visual" xmlns="http://www.w3.org/2000/svg" xmlns:xlink="http://www.w3.org/1999/xlink" x="0px" y="0px"
	 viewBox="0 0 960 240" style="enable-background:new 0 0 960 240;" xml:space="preserve">
<style type="text/css">
	.st0{fill:#DF0321;}
	.st1{fill:#B00055;}
	.st2{fill:#681C63;}
	.st3{fill:#23224C;}
	.st4{fill:#04121F;}
	.st5{fill:#A9B9BB;}
	.st6{fill:#8E9A9B;}
	.st7{fill:#727C7C;}
	.st8{fill:#5F6666;}
	.st9{fill:#C7FAFF;}
	.st10{fill:#EAFFFF;}
	.st11{fill:#FF7124;}
	.st12{fill:#F2D59F;}
	.st13{fill:#8ECAC1;}
	.st14{fill:#FFFFFF;}
	.st15{font-family:'Bungee-Regular';}
	.st16{font-size:12px;}
</style>
<path class="st0" d="M0,47l14.5,4.7C29,56.3,58,65.7,87.2,73.2c29.1,7.5,58.5,13.1,87.6,11.6C204,83.3,233,74.7,262,67.2
	s58-13.9,87-15c29-1.2,58,2.8,87.2,9.1c29.1,6.4,58.5,15,87.6,16.5c29.2,1.5,58.2-4.1,87.2-0.1s58,17.6,87,20.5
	c29,2.8,58-5.2,87.2-12.9c29.1-7.6,58.5-15,87.6-13.8c29.2,1.2,58.2,10.8,72.7,15.7L960,92V0h-14.5C931,0,902,0,872.8,0
	c-29.1,0-58.5,0-87.6,0C756,0,727,0,698,0s-58,0-87,0s-58,0-87.2,0c-29.1,0-58.5,0-87.6,0C407,0,378,0,349,0s-58,0-87,0
	s-58,0-87.2,0c-29.1,0-58.5,0-87.6,0C58,0,29,0,14.5,0H0V47z"/>
<path class="st1" d="M0,131l14.5,1.5C29,134,58,137,87.2,135.3c29.1-1.6,58.5-8,87.6-6.8c29.2,1.2,58.2,9.8,87.2,13.5s58,2.3,87-1.2
	s58-9.1,87.2-8c29.1,1.2,58.5,9.2,87.6,16c29.2,6.9,58.2,12.5,87.2,12s58-7.1,87-9.6s58-0.9,87.2-6.4c29.1-5.5,58.5-18.1,87.6-21.3
	c29.2-3.2,58.2,3.2,72.7,6.3L960,133V90l-14.5-4.8C931,80.3,902,70.7,872.8,69.5c-29.1-1.2-58.5,6.2-87.6,13.8
	C756,91,727,99,698,96.2c-29-2.9-58-16.5-87-20.5s-58,1.6-87.2,0.1c-29.1-1.5-58.5-10.1-87.6-16.5C407,53,378,49,349,50.2
	c-29,1.1-58,7.5-87,15s-58,16.1-87.2,17.6c-29.1,1.5-58.5-4.1-87.6-11.6C58,63.7,29,54.3,14.5,49.7L0,45V131z"/>
<path class="st2" d="M0,164h14.5c14.5,0,43.5,0,72.7-0.8c29.1-0.9,58.5-2.5,87.6,1.1C204,168,233,177,262,177.5s58-7.5,87-10.7
	c29-3.1,58-1.5,87.2,0c29.1,1.5,58.5,2.9,87.6,5.5c29.2,2.7,58.2,6.7,87.2,6c29-0.6,58-6,87-7.1c29-1.2,58,1.8,87.2-0.2
	c29.1-2,58.5-9,87.6-11c29.2-2,58.2,1,72.7,2.5L960,164v-33l-14.5-3.2c-14.5-3.1-43.5-9.5-72.7-6.3c-29.1,3.2-58.5,15.8-87.6,21.3
	c-29.2,5.5-58.2,3.9-87.2,6.4s-58,9.1-87,9.6s-58-5.1-87.2-12c-29.1-6.8-58.5-14.8-87.6-16c-29.2-1.1-58.2,4.5-87.2,8
	s-58,4.9-87,1.2s-58-12.3-87.2-13.5c-29.1-1.2-58.5,5.2-87.6,6.8C58,135,29,132,14.5,130.5L0,129V164z"/>
<path class="st3" d="M0,195l14.5,1.3c14.5,1.4,43.5,4,72.7,0.9c29.1-3.2,58.5-12.2,87.6-9c29.2,3.1,58.2,18.5,87.2,20.1
	c29,1.7,58-10.3,87-12.8s58,4.5,87.2,8.5c29.1,4,58.5,5,87.6,4.3c29.2-0.6,58.2-3,87.2-1.5s58,6.9,87,6.4s58-6.9,87.2-13.5
	c29.1-6.7,58.5-13.7,87.6-12c29.2,1.6,58.2,12,72.7,17.1L960,210v-48l-14.5-1.5C931,159,902,156,872.8,158c-29.1,2-58.5,9-87.6,11
	c-29.2,2-58.2-1-87.2,0.2c-29,1.1-58,6.5-87,7.1c-29,0.7-58-3.3-87.2-6c-29.1-2.6-58.5-4-87.6-5.5c-29.2-1.5-58.2-3.1-87.2,0
	c-29,3.2-58,11.2-87,10.7s-58-9.5-87.2-13.2c-29.1-3.6-58.5-2-87.6-1.1C58,162,29,162,14.5,162H0V195z"/>
<path class="st4" d="M0,241h14.5c14.5,0,43.5,0,72.7,0c29.1,0,58.5,0,87.6,0c29.2,0,58.2,0,87.2,0s58,0,87,0s58,0,87.2,0
	c29.1,0,58.5,0,87.6,0c29.2,0,58.2,0,87.2,0s58,0,87,0s58,0,87.2,0c29.1,0,58.5,0,87.6,0c29.2,0,58.2,0,72.7,0H960v-33l-14.5-5.2
	c-14.5-5.1-43.5-15.5-72.7-17.1c-29.1-1.7-58.5,5.3-87.6,12c-29.2,6.6-58.2,13-87.2,13.5s-58-4.9-87-6.4s-58,0.9-87.2,1.5
	c-29.1,0.7-58.5-0.3-87.6-4.3c-29.2-4-58.2-11-87.2-8.5s-58,14.5-87,12.8c-29-1.6-58-17-87.2-20.1c-29.1-3.2-58.5,5.8-87.6,9
	c-29.2,3.1-58.2,0.5-72.7-0.9L0,193V241z"/>
<path class="st5" d="M706.2,204.8h-18.9V80h18.9V204.8z"/>
<path class="st6" d="M598.4,40.2v164.5h-18.9V40.2c0-5.2,4.2-9.5,9.5-9.5l0,0C594.2,30.8,598.4,35,598.4,40.2z"/>
<path class="st7" d="M587,40.2v164.5h-7.6V40.2c0-5.2,4.2-9.5,9.5-9.5c1.3,0,2.6,0.3,3.8,0.8C589.4,33,587,36.4,587,40.2z"/>
<path class="st5" d="M699.6,33.6v22.7c0,1.6-1.3,2.8-2.8,2.8c-1.6,0-2.8-1.3-2.8-2.8V33.6c0-1.6,1.3-2.8,2.8-2.8
	C698.3,30.8,699.6,32.1,699.6,33.6z M643.8,155.6c-1.6,0-2.8,1.3-2.8,2.8v22.7c0,1.6,1.3,2.8,2.8,2.8c1.6,0,2.8-1.3,2.8-2.8v-22.7
	C646.6,156.9,645.3,155.6,643.8,155.6z"/>
<path class="st6" d="M742.1,140.5c0,6.3-5.1,11.3-11.3,11.3h-32.2v53h-11.3v-53h-24.6c-6.3,0-11.3-5.1-11.3-11.3
	c0-6.3,5.1-11.3,11.3-11.3H674h13.2V80h11.3v49.2h7.6h9.5h15.1C737,129.1,742.1,134.2,742.1,140.5z"/>
<g>
	<path class="st7" d="M740.6,134.8c1,1.7,1.5,3.6,1.5,5.7l0,0c0,6.3-5.1,11.3-11.3,11.3h-68.1c-6.3,0-11.3-5.1-11.3-11.3l0,0
		c0-2.1,0.6-4,1.5-5.7c2,3.4,5.6,5.7,9.8,5.7h68.1C735,140.5,738.6,138.2,740.6,134.8z"/>
	<path class="st7" d="M628.7,66.7v138.1h-18.9V66.7c0-5.2,4.2-9.5,9.5-9.5S628.7,61.5,628.7,66.7z M696.7,53.5L696.7,53.5
		c-13.6,0-24.6,11-24.6,24.6l0,0c0,13.6,11,24.6,24.6,24.6l0,0c13.6,0,24.6-11,24.6-24.6l0,0C721.3,64.5,710.3,53.5,696.7,53.5z"/>
</g>
<path class="st8" d="M619.2,57.3c1.3,0,2.6,0.3,3.8,0.8c-3.3,1.5-5.7,4.8-5.7,8.7v138.1h-7.6V66.7C609.7,61.5,614,57.3,619.2,57.3z
	 M706.2,91.3L706.2,91.3c-13.6,0-24.6-11-24.6-24.6l0,0c0-3.3,0.7-6.5,1.8-9.3c-6.8,4.4-11.3,12-11.3,20.7l0,0
	c0,13.6,11,24.6,24.6,24.6l0,0c10.3,0,19.1-6.3,22.7-15.3C715.7,89.9,711.1,91.3,706.2,91.3z"/>
<path class="st5" d="M628.7,110.2h-49.2c-6.3,0-11.3-5.1-11.3-11.3l0,0c0-6.3,5.1-11.3,11.3-11.3h49.2c6.3,0,11.3,5.1,11.3,11.3l0,0
	C640,105.1,634.9,110.2,628.7,110.2z"/>
<path class="st6" d="M666.5,201v3.8h-45.4V201c0-12.5,10.2-22.7,22.7-22.7l0,0C656.3,178.3,666.5,188.5,666.5,201z"/>
<path class="st7" d="M731.4,208.3c-0.2,1.4-36.9,3.1-38.3,3.1L569.7,206c-1.4,0-2.7-0.9-3-2.3c-0.3-1.8,1.1-3.3,2.7-3.4l159.2,4.4
	C730.6,204.8,731.7,206.5,731.4,208.3z"/>
<path class="st9" d="M589.9,98.9c0,1.6-1.3,2.8-2.8,2.8h-7.6c-1.6,0-2.8-1.3-2.8-2.8c0-1.6,1.3-2.8,2.8-2.8h7.6
	C588.6,96,589.9,97.3,589.9,98.9z M602.2,96h-3.8c-1.6,0-2.8,1.3-2.8,2.8c0,1.6,1.3,2.8,2.8,2.8h3.8c1.6,0,2.8-1.3,2.8-2.8
	C605,97.3,603.7,96,602.2,96z M727,75.2h-60.5c-1.6,0-2.8,1.3-2.8,2.8s1.3,2.8,2.8,2.8H727c1.6,0,2.8-1.3,2.8-2.8
	C729.8,76.5,728.6,75.2,727,75.2z M645.7,186.8h-3.8c-1.6,0-2.8,1.3-2.8,2.8c0,1.6,1.3,2.8,2.8,2.8h3.8c1.6,0,2.8-1.3,2.8-2.8
	C648.5,188.1,647.2,186.8,645.7,186.8z"/>
<path class="st10" d="M647.6,48.8h-15.1c-1.6,0-2.8-1.3-2.8-2.8s1.3-2.8,2.8-2.8h15.1c1.6,0,2.8,1.3,2.8,2.8S649.1,48.8,647.6,48.8z
	 M734.6,111.2h-11.3c-1.6,0-2.8,1.3-2.8,2.8c0,1.6,1.3,2.8,2.8,2.8h11.3c1.6,0,2.8-1.3,2.8-2.8C737.4,112.4,736.1,111.2,734.6,111.2
	z M658.9,115h-7.6c-1.6,0-2.8,1.3-2.8,2.8c0,1.6,1.3,2.8,2.8,2.8h7.6c1.6,0,2.8-1.3,2.8-2.8C661.8,116.2,660.5,115,658.9,115z
	 M666.5,58.2h-11.3c-1.6,0-2.8,1.3-2.8,2.8c0,1.6,1.3,2.8,2.8,2.8h11.3c1.6,0,2.8-1.3,2.8-2.8C669.3,59.5,668,58.2,666.5,58.2z"/>
<g id="_x32_7._Planet">
	<g id="XMLID_13_">
		<g>
			<g>
				<path class="st11" d="M234.3,26c16.3,3.1,27.6,9.7,27.6,17.3c0,7.7-11.3,14.3-27.6,17.3c-6.3,1.2-13.4,1.9-20.8,1.9
					c-7.5,0-14.5-0.7-20.8-1.9c-16.3-3.1-27.6-9.7-27.6-17.3c0-7.7,11.3-14.3,27.6-17.3c-2.5,3.1-4.4,6.7-5.4,10.7
					c-4.2,1.9-6.8,4.2-6.8,6.7c0,2.5,2.5,4.8,6.8,6.7c6,2.6,15.6,4.3,26.3,4.3c10.7,0,20.2-1.7,26.3-4.3c4.2-1.9,6.8-4.2,6.8-6.7
					c0-2.5-2.5-4.8-6.8-6.7C238.8,32.7,236.9,29,234.3,26z"/>
			</g>
			<g>
				<path class="st12" d="M242,3.6c0,3.8,3.1,6.9,6.9,6.9c-3.8,0-6.9,3.1-6.9,6.9c0-3.8-3.1-6.9-6.9-6.9C239,10.5,242,7.4,242,3.6z"
					/>
			</g>
			<g>
				<path class="st13" d="M239.8,36.6c0.5,2.1,0.8,4.4,0.8,6.7c0,2.3-0.3,4.6-0.8,6.7c-6,2.6-15.6,4.3-26.3,4.3
					c-10.7,0-20.2-1.7-26.3-4.3c-0.5-2.1-0.8-4.4-0.8-6.7c0-2.3,0.3-4.5,0.8-6.7c1-4,2.9-7.6,5.4-10.7c5-6,12.5-9.8,20.8-9.8
					c8.4,0,15.8,3.8,20.8,9.8C236.9,29,238.8,32.7,239.8,36.6z"/>
			</g>
			<g>
				<path class="st13" d="M234.3,60.7c-5,6-12.5,9.8-20.8,9.8c-8.4,0-15.8-3.8-20.8-9.8c6.3,1.2,13.4,1.9,20.8,1.9
					C221,62.5,228,61.9,234.3,60.7z"/>
			</g>
			<g>
				<path class="st12" d="M74,46.5c0,4.3,3.5,7.8,7.8,7.8c-4.3,0-7.8,3.5-7.8,7.8c0-4.3-3.5-7.8-7.8-7.8C70.5,54.4,74,50.9,74,46.5z
					"/>
			</g>
			<g>
				<path class="st12" d="M183.2,55.2c-1.2,3,0.2,6.4,3.2,7.6c-3-1.2-6.4,0.2-7.6,3.2c1.2-3-0.2-6.4-3.2-7.6
					C178.5,59.7,182,58.2,183.2,55.2z"/>
			</g>
			<g>
				<path class="st12" d="M429,22.3c-1.2,3,0.2,6.4,3.2,7.6c-3-1.2-6.4,0.2-7.6,3.2c1.2-3-0.2-6.4-3.2-7.6
					C424.4,26.8,427.8,25.3,429,22.3z"/>
			</g>
		</g>
	</g>
</g>
<text transform="matrix(0.9999 -1.110817e-02 1.110817e-02 0.9999 12.8551 159.3875)" class="st14 st15 st16">A VIVES University </text>
<g>
	<g>
		<path class="st14" d="M154.7,158.2c-0.3,0-0.4-0.1-0.4-0.4c0-3.1,0-4.6,0-7.7c0-0.3,0.1-0.4,0.4-0.4c1.4,0,2.2,0,3.6,0.1
			c2.1,0.1,2.7,1.1,2.7,2.5c0,0.6,0,0.9,0,1.5c0,1.4-0.6,2.2-2.7,2.1c-0.5,0-0.8,0-1.3-0.1c0,0.8,0,1.2,0,2c0,0.3-0.1,0.4-0.4,0.4
			C155.7,158.2,155.4,158.2,154.7,158.2z M156.9,153.7c0.4,0,0.6,0,1,0c0.5,0,0.5-0.2,0.5-0.6c0-0.3,0-0.4,0-0.6
			c0-0.3-0.1-0.6-0.5-0.6c-0.4,0-0.6,0-1,0C156.9,152.6,156.9,153,156.9,153.7z"/>
		<path class="st14" d="M162.5,158.6c-0.3,0-0.4-0.2-0.4-0.5c0-3.1,0-4.6,0-7.7c0-0.3,0.1-0.4,0.4-0.4c1.5,0.1,2.3,0.2,3.8,0.4
			c1.7,0.2,2.3,1.1,2.3,2.3c0,0.2,0,0.3,0,0.5c0,0.7-0.2,1.1-0.6,1.3c0.8,0.2,1.4,0.9,1.4,1.9c0,1,0,1.5,0,2.5
			c0,0.3-0.1,0.4-0.4,0.4c-0.7-0.1-1.1-0.1-1.8-0.2c-0.3,0-0.4-0.2-0.4-0.5c0-0.7,0-1.1,0-1.8c0-0.4-0.1-0.5-0.4-0.6
			c-0.6-0.1-1-0.1-1.6-0.2c0,0.9,0,1.4,0,2.3c0,0.3-0.1,0.4-0.4,0.4C163.6,158.6,163.2,158.6,162.5,158.6z M164.7,153.9
			c0.3,0,0.5,0.1,0.9,0.1c0.4,0,0.5-0.2,0.5-0.5c0-0.2,0-0.2,0-0.4c0-0.3-0.1-0.6-0.5-0.6c-0.3,0-0.5-0.1-0.9-0.1
			C164.7,153,164.7,153.3,164.7,153.9z"/>
		<path class="st14" d="M174.2,160.2c-3-0.4-3.7-1.5-3.7-2.9c0-1.6,0-2.4,0-4c0-1.4,0.7-2.3,3.7-1.9c3,0.4,3.7,1.6,3.7,3
			c0,1.6,0,2.4,0,4C177.8,159.8,177.1,160.6,174.2,160.2z M174.2,157.9c0.9,0.1,1-0.1,1-0.4c0-1.3,0-1.9,0-3.2c0-0.3-0.1-0.6-1-0.7
			c-0.9-0.1-1,0.1-1,0.4c0,1.3,0,1.9,0,3.2C173.2,157.5,173.3,157.8,174.2,157.9z"/>
		<path class="st14" d="M182.4,161.5c-2.8-0.4-3.4-1.5-3.4-3c0-0.8,0-1.1,0-1.9c0-0.3,0.1-0.4,0.4-0.4c0.7,0.1,1,0.2,1.7,0.3
			c0.3,0,0.4,0.2,0.4,0.5c0,0.6,0,0.9,0,1.4c0,0.3,0.1,0.6,0.8,0.7c0.7,0.1,0.8-0.1,0.8-0.4c0-2.2,0-3.2,0-5.4
			c0-0.3,0.1-0.4,0.4-0.4c0.7,0.1,1.1,0.2,1.9,0.3c0.3,0,0.4,0.2,0.4,0.5c0,2.3,0,3.5,0,5.8C185.9,161.1,185.2,162,182.4,161.5z"/>
		<path class="st14" d="M187.9,162.2c-0.3,0-0.4-0.2-0.4-0.5c0-3.1,0-4.6,0-7.7c0-0.3,0.1-0.4,0.4-0.4c2.2,0.3,3.3,0.5,5.5,0.9
			c0.3,0.1,0.4,0.2,0.4,0.5c0,0.5,0,0.8,0,1.4c0,0.3-0.1,0.4-0.4,0.3c-1.3-0.2-2-0.3-3.3-0.5c0,0.4,0,0.5,0,0.9
			c0.9,0.1,1.4,0.2,2.3,0.4c0.3,0.1,0.4,0.2,0.4,0.5c0,0.5,0,0.8,0,1.3c0,0.3-0.1,0.4-0.4,0.4c-0.9-0.2-1.4-0.2-2.3-0.4
			c0,0.4,0,0.6,0,1c1.3,0.2,2,0.3,3.3,0.5c0.3,0.1,0.4,0.2,0.4,0.5c0,0.6,0,0.8,0,1.4c0,0.3-0.1,0.4-0.4,0.3
			C191.2,162.7,190.1,162.6,187.9,162.2z"/>
		<path class="st14" d="M197.9,163.9c-2-0.4-2.9-1.3-2.9-2.9c0-1.5,0-2.2,0-3.7c0-1.6,1-2.2,3-1.8c1.2,0.3,1.8,0.4,3,0.6
			c0.3,0.1,0.4,0.2,0.4,0.5c0,0.6,0,0.8,0,1.4c0,0.3-0.1,0.4-0.4,0.3c-1-0.2-1.5-0.3-2.4-0.5c-0.5-0.1-0.7,0-0.7,0.4
			c0,1.1,0,1.7,0,2.8c0,0.4,0.2,0.6,0.7,0.7c1,0.2,1.5,0.3,2.4,0.5c0.3,0.1,0.4,0.2,0.4,0.5c0,0.6,0,0.8,0,1.4
			c0,0.3-0.1,0.4-0.4,0.3C199.7,164.3,199.1,164.1,197.9,163.9z"/>
		<path class="st14" d="M204.8,165.2c-0.3-0.1-0.4-0.2-0.4-0.5c0-2.3,0.1-3.4,0.1-5.7c-0.7-0.1-1.1-0.2-1.8-0.3
			c-0.3-0.1-0.4-0.2-0.4-0.5c0-0.6,0-0.8,0-1.4c0-0.3,0.1-0.4,0.4-0.3c2.6,0.4,3.9,0.6,6.4,0.7c0.3,0,0.4,0.1,0.4,0.4
			c0,0.6,0,0.9,0,1.5c0,0.3-0.1,0.4-0.4,0.4c-0.7,0-1.1-0.1-1.8-0.1c0,2.3,0,3.5-0.1,5.8c0,0.3-0.1,0.4-0.5,0.4
			C206,165.4,205.6,165.3,204.8,165.2z"/>
	</g>
</g>
<g>
	<g>
		<path class="st2" d="M263.9,203.4c-0.3,0-0.4-0.1-0.4-0.4c0-2.7,0.2-4.5,0.2-7.2c0-0.3,0.1-0.4,0.4-0.3c1.3,0.1,1.9,0.1,3.1,0.2
			c1.3,0,1.8,0.5,1.9,1.7c0,0.2,0,0.3,0,0.5c0,0.6-0.2,1-0.6,1.2c0.8,0.1,1.2,0.7,1.2,1.8c0,0.4,0,0.6,0,1c0,1.3-0.6,1.7-1.9,1.7
			C266.3,203.5,265.5,203.5,263.9,203.4z M265.9,198.6c0.3,0,0.5,0,0.8,0c0.3,0,0.4-0.1,0.4-0.4c0-0.1,0-0.2,0-0.3
			c0-0.3-0.1-0.5-0.4-0.5c-0.3,0-0.5,0-0.8,0C265.9,197.9,265.9,198.1,265.9,198.6z M265.8,201.7c0.5,0,0.8,0,1.3,0.1
			c0.3,0,0.4-0.1,0.4-0.4c0-0.2,0-0.3,0-0.4c0-0.3-0.1-0.5-0.4-0.5c-0.5,0-0.8,0-1.3-0.1C265.8,200.9,265.8,201.2,265.8,201.7z"/>
		<path class="st2" d="M272.6,203.7c-0.2,0-0.3-0.1-0.4-0.4c0-0.5,0-0.8,0-1.4c-0.6-0.9-0.9-1.4-1.5-2.4c-0.3-0.5-0.4-0.7-0.4-1.4
			c0-0.9,0-1.3,0-2.1c0-0.3,0.1-0.4,0.3-0.4c0.6,0,0.9,0,1.4,0c0.2,0,0.3,0.1,0.3,0.4c0,0.7,0,1,0,1.8c0,0.2,0,0.3,0.1,0.5
			c0.2,0.3,0.3,0.5,0.4,0.8c0.1,0.1,0.1,0.2,0.2,0.2c0,0,0.1,0,0.1,0c0.1,0,0.2-0.1,0.2-0.2c0.2-0.3,0.2-0.5,0.4-0.9
			c0.1-0.2,0.1-0.3,0.1-0.5c0-0.8,0-1.1-0.1-1.8c0-0.3,0.1-0.4,0.3-0.4c0.5,0,0.8,0,1.4-0.1c0.2,0,0.3,0.1,0.3,0.3
			c0,0.8,0,1.2,0.1,2.1c0,0.7,0,1-0.3,1.5c-0.5,1-0.8,1.5-1.3,2.5c0,0.6,0,0.9,0,1.4c0,0.3-0.1,0.4-0.3,0.4
			C273.5,203.7,273.2,203.7,272.6,203.7z"/>
		<path class="st2" d="M279.5,203.5c-0.2,0-0.3-0.1-0.3-0.4c-0.1-2.7-0.1-4.8-0.3-7.5c0-0.3,0.1-0.4,0.3-0.4
			c0.6-0.1,0.9-0.1,1.4-0.2c0.2,0,0.3,0,0.4,0.3c0.4,0.6,0.5,1,0.9,1.7c0.1,0.1,0.1,0.2,0.2,0.2c0,0,0,0,0.1,0
			c0.1,0,0.1-0.1,0.2-0.2c0.3-0.8,0.4-1.2,0.7-1.9c0.1-0.2,0.2-0.3,0.4-0.4c0.6-0.1,0.9-0.1,1.5-0.2c0.2,0,0.3,0.1,0.3,0.3
			c0.1,2.8,0.2,5,0.3,7.8c0,0.3-0.1,0.4-0.3,0.4c-0.5,0.1-0.8,0.1-1.4,0.1c-0.2,0-0.3-0.1-0.3-0.3c-0.1-1.5-0.1-2.4-0.1-4.2
			c-0.2,0.6-0.3,0.9-0.5,1.4c-0.1,0.3-0.2,0.4-0.5,0.4c-0.1,0-0.2,0-0.4,0c-0.2,0-0.4-0.1-0.5-0.3c-0.2-0.5-0.3-0.8-0.6-1.3
			c0.1,1.7,0.1,2.7,0.1,4.2c0,0.3-0.1,0.4-0.3,0.4C280.3,203.4,280.1,203.5,279.5,203.5z"/>
		<path class="st2" d="M286.6,202.4c0-0.5,0-0.8,0-1.3c0-0.3,0.1-0.4,0.3-0.5c0.4,0,0.5-0.1,0.9-0.1c-0.1-1.6-0.1-2.6-0.1-4.2
			c-0.4,0.1-0.5,0.1-0.9,0.1c-0.2,0-0.3-0.1-0.3-0.4c0-0.6,0-0.9,0-1.4c0-0.3,0.1-0.4,0.3-0.4c1.5-0.2,2.3-0.4,3.9-0.6
			c0.2,0,0.3,0.1,0.3,0.3c0,0.5,0,0.8,0,1.4c0,0.3-0.1,0.5-0.3,0.5c-0.4,0.1-0.5,0.1-0.9,0.1c0,1.7,0.1,2.6,0.1,4.3
			c0.4,0,0.5-0.1,0.9-0.1c0.2,0,0.3,0.1,0.3,0.4c0,0.6,0,0.9,0,1.4c0,0.3-0.1,0.4-0.3,0.4c-1.5,0.2-2.3,0.3-3.8,0.5
			C286.7,202.8,286.6,202.7,286.6,202.4z"/>
		<path class="st2" d="M294.4,201.8c-1.6,0.2-2.3-0.3-2.3-2c0-1.6-0.1-2.4-0.1-4c0-1.8,0.7-2.5,2.2-2.8c0.9-0.2,1.4-0.2,2.3-0.4
			c0.2,0,0.3,0.1,0.3,0.3c0,0.5,0,0.8,0,1.4c0,0.3-0.1,0.5-0.3,0.5c-0.8,0.1-1.1,0.2-1.9,0.3c-0.4,0.1-0.6,0.3-0.6,0.7
			c0,1.2,0,1.9,0.1,3.1c0,0.4,0.2,0.6,0.6,0.5c0.7-0.1,1.1-0.2,1.9-0.3c0.2,0,0.3,0.1,0.3,0.4c0,0.6,0,0.9,0,1.4
			c0,0.3-0.1,0.4-0.3,0.4C295.7,201.5,295.3,201.6,294.4,201.8z"/>
		<path class="st2" d="M298.4,201.1c-0.2,0-0.3-0.1-0.3-0.3c0-2.8-0.1-5.3-0.2-8.1c0-0.3,0.1-0.4,0.3-0.4c0.6-0.1,0.9-0.1,1.5-0.2
			c0.2,0,0.4,0.1,0.4,0.3c0,0.9,0,1.5,0,2.6c0.7-0.1,1-0.2,1.6-0.3c0-1.1,0-1.7,0-2.6c0-0.3,0.1-0.4,0.4-0.4
			c0.6-0.1,0.9-0.1,1.5-0.2c0.2,0,0.4,0.1,0.4,0.3c0,2.8,0.1,5.3,0.2,8.1c0,0.3-0.1,0.4-0.4,0.4c-0.6,0.1-0.9,0.2-1.5,0.3
			c-0.2,0-0.4-0.1-0.4-0.3c0-1,0-1.5,0-2.7c-0.7,0.1-1,0.2-1.6,0.3c0,1.2,0,1.7,0,2.7c0,0.3-0.1,0.4-0.3,0.4
			C299.3,201,299,201,298.4,201.1z"/>
		<path class="st2" d="M307.2,199.6c-0.6,0.1-0.9,0.2-1.5,0.3c-0.2,0-0.4,0-0.4-0.3c0-1.1,0-1.8-0.1-3.2c0-0.5,0.1-1.2,0.3-2.2
			c0.3-1.2,0.5-1.8,0.8-2.9c0.1-0.3,0.2-0.4,0.5-0.4c1.1-0.2,1.6-0.3,2.7-0.5c0.3,0,0.4,0,0.5,0.3c0.4,0.9,0.5,1.5,0.9,2.5
			c0.3,0.8,0.4,1.5,0.4,2c0,1.3,0,2,0.1,3.2c0,0.3-0.1,0.4-0.4,0.5c-0.6,0.1-0.9,0.2-1.5,0.3c-0.3,0.1-0.4,0-0.4-0.3
			c0-0.6,0-0.9,0-1.6c-0.7,0.1-1,0.2-1.7,0.4c0,0.7,0,1,0,1.6C307.5,199.4,307.4,199.6,307.2,199.6z M307.5,195.2
			c0.6-0.1,0.9-0.2,1.6-0.3c-0.2-0.8-0.3-1.1-0.5-1.9c-0.1-0.1-0.1-0.2-0.2-0.2c-0.1,0-0.1,0-0.2,0c-0.1,0-0.1,0.1-0.2,0.2
			C307.8,193.9,307.7,194.4,307.5,195.2z"/>
		<path class="st2" d="M313.1,198.4c-0.2,0.1-0.4,0-0.4-0.3c0-2.8-0.1-5-0.1-7.8c0-0.3,0.1-0.4,0.4-0.4c1.8-0.3,2.8-0.5,4.6-0.8
			c0.2,0,0.4,0,0.4,0.3c0,0.5,0,0.8,0,1.3c0,0.3-0.1,0.4-0.4,0.5c-1.1,0.2-1.6,0.3-2.7,0.5c0,0.4,0,0.6,0,0.9
			c0.8-0.2,1.2-0.2,1.9-0.4c0.2,0,0.4,0.1,0.4,0.4c0,0.5,0,0.8,0,1.3c0,0.3-0.1,0.5-0.3,0.5c-0.8,0.2-1.2,0.2-1.9,0.4
			c0,0.4,0,0.6,0,1c1.1-0.2,1.6-0.4,2.7-0.6c0.2-0.1,0.4,0,0.4,0.3c0,0.5,0,0.8,0,1.3c0,0.3-0.1,0.4-0.4,0.5
			C315.8,197.7,314.9,197.9,313.1,198.4z"/>
		<path class="st2" d="M319.5,196.8c-0.2,0.1-0.4,0-0.4-0.3c0-2.7-0.1-4.7-0.1-7.4c0-0.3,0.1-0.4,0.4-0.4c0.6-0.1,0.9-0.2,1.5-0.3
			c0.2,0,0.4,0,0.4,0.3c0,2.1,0,3.4,0.1,5.6c0.5-0.1,0.8-0.2,1.4-0.3c0-0.7,0-1.1,0-1.8c0-0.3,0.1-0.4,0.3-0.5
			c0.6-0.1,0.9-0.2,1.4-0.3c0.2-0.1,0.4,0.1,0.4,0.3c0,1.4,0,2.2,0,3.4c0,0.3-0.1,0.4-0.4,0.4C322.5,196.1,321.5,196.4,319.5,196.8z
			"/>
		<path class="st2" d="M328.5,194.7c-0.2,0.1-0.4,0-0.4-0.3c0-2.6,0-4.3,0-6.9c0-0.3,0.1-0.4,0.4-0.4c0.6-0.1,0.9-0.2,1.5-0.3
			c0.2,0,0.4,0,0.4,0.3c0,0.9,0,1.4,0,2.4c0.2,0,0.2,0,0.4-0.1c0.4-1.1,0.6-1.6,1-2.6c0.1-0.3,0.2-0.4,0.5-0.4
			c0.6-0.1,0.9-0.2,1.5-0.3c0.2,0,0.3,0.1,0.2,0.3c-0.4,1-0.6,1.5-1,2.5c0.7-0.1,1.2,0.4,1.2,1.2c0,1.2,0,1.8,0,2.9
			c0,0.2-0.1,0.4-0.4,0.4c-0.6,0.1-0.9,0.2-1.5,0.3c-0.2,0.1-0.4,0-0.4-0.3c0-0.8,0-1.2,0-2c0-0.2-0.1-0.3-0.3-0.3
			c-0.5,0.1-0.8,0.2-1.3,0.3c0,1,0,1.5,0,2.4c0,0.2-0.1,0.4-0.4,0.4C329.4,194.5,329.1,194.5,328.5,194.7z"/>
		<path class="st2" d="M337.1,192.8c-0.6,0.1-0.9,0.2-1.5,0.3c-0.2,0.1-0.4,0-0.4-0.3c0-1,0-1.6,0-2.7c0-0.4,0.1-0.9,0.4-1.7
			c0.3-1,0.5-1.5,0.9-2.4c0.1-0.2,0.2-0.4,0.5-0.4c1.1-0.2,1.6-0.3,2.7-0.4c0.3,0,0.4,0,0.5,0.2c0.3,0.8,0.5,1.3,0.9,2.1
			c0.3,0.7,0.4,1.1,0.4,1.5c0,1,0,1.6,0,2.6c0,0.2-0.1,0.4-0.4,0.4c-0.6,0.1-0.9,0.2-1.5,0.3c-0.3,0-0.4,0-0.4-0.3
			c0-0.6,0-0.8,0-1.4c-0.7,0.1-1.1,0.2-1.8,0.3c0,0.6,0,0.8,0,1.4C337.5,192.6,337.4,192.8,337.1,192.8z M337.6,189.1
			c0.6-0.1,0.9-0.2,1.6-0.3c-0.2-0.6-0.3-0.9-0.5-1.4c0-0.1-0.1-0.2-0.2-0.1c-0.1,0-0.1,0-0.2,0c-0.1,0-0.1,0.1-0.2,0.2
			C337.9,188.2,337.8,188.5,337.6,189.1z"/>
		<path class="st2" d="M344.1,191.6c-0.2,0-0.4-0.1-0.4-0.3c0-1.9,0-2.9,0-4.9c-0.6,0.1-0.9,0.1-1.5,0.2c-0.2,0-0.4-0.1-0.4-0.3
			c0-0.5,0-0.7,0-1.2c0-0.2,0.1-0.4,0.4-0.4c2.1-0.3,3.2-0.5,5.3-0.7c0.3,0,0.4,0.1,0.4,0.3c0,0.5,0,0.7,0,1.2
			c0,0.3-0.1,0.4-0.4,0.4c-0.6,0.1-0.9,0.1-1.5,0.2c0,2-0.1,3,0,4.9c0,0.2-0.1,0.4-0.4,0.4C345,191.5,344.7,191.6,344.1,191.6z"/>
		<path class="st2" d="M349.1,191.2c-0.2,0-0.4-0.1-0.4-0.3c0-2.5,0.1-4,0.1-6.6c0-0.2,0.1-0.4,0.4-0.4c0.6-0.1,1-0.1,1.6-0.1
			c0.3,0,0.4,0.1,0.4,0.3c0,0.9,0,1.3-0.1,2.2c0.7,0,1-0.1,1.7-0.1c0-0.9,0.1-1.4,0.1-2.2c0-0.2,0.1-0.4,0.4-0.4
			c0.6,0,1-0.1,1.6-0.1c0.3,0,0.4,0.1,0.4,0.3c0,2.6-0.4,4.3-0.4,6.9c0,0.3-0.1,0.4-0.4,0.4c-0.6,0-0.9,0-1.5,0
			c-0.2,0-0.4-0.1-0.4-0.3c0-0.9,0-1.4,0.1-2.3c-0.7,0-1,0-1.7,0.1c0,0.9-0.1,1.4-0.1,2.3c0,0.2-0.1,0.4-0.4,0.4
			C350.1,191.2,349.8,191.2,349.1,191.2z"/>
		<path class="st2" d="M359.3,191.3c-2.5-0.1-3.1-0.9-3-2.2c0.1-1.5,0.2-2.3,0.3-3.8c0.1-1.3,0.7-2.2,3.3-2.3s3.3,0.7,3.1,2.1
			c-0.2,1.6-0.3,2.5-0.5,4C362.3,190.6,361.8,191.4,359.3,191.3z M359.4,189.3c0.7,0,0.9-0.2,0.9-0.5c0.1-1.2,0.2-1.9,0.3-3.1
			c0-0.3-0.1-0.5-0.8-0.5c-0.7,0-0.9,0.2-0.9,0.5c-0.1,1.2-0.2,1.9-0.3,3.1C358.5,189,358.7,189.3,359.4,189.3z"/>
		<path class="st2" d="M364,191.4c-0.2,0-0.4-0.1-0.3-0.4c0.1-2.7,0.7-4.8,0.8-7.5c0-0.3,0.1-0.4,0.4-0.4c1.9,0,2.8,0,4.7-0.1
			c0.3,0,0.4,0.1,0.4,0.4c0,0.5-0.1,0.8-0.1,1.4c0,0.3-0.2,0.4-0.4,0.4c-1.1,0-1.6,0-2.6,0c-0.1,0.5-0.1,0.8-0.2,1.3
			c0.7,0,1.1,0,1.8,0c0.3,0,0.3,0.1,0.3,0.5c-0.1,0.6-0.2,0.9-0.3,1.5c0,0.3-0.2,0.4-0.4,0.4c-0.7,0-1,0-1.8-0.1
			c-0.1,1-0.2,1.4-0.2,2.3c0,0.3-0.1,0.4-0.4,0.4C364.9,191.4,364.6,191.4,364,191.4z"/>
		<path class="st2" d="M370.1,191.8c-0.2,0-0.4-0.1-0.3-0.4c0.2-2.8,1-5.1,1.1-7.9c0-0.3,0.1-0.4,0.4-0.4c1.9,0,2.9,0,4.8,0
			c0.3,0,0.4,0.1,0.3,0.4c0,0.5-0.1,0.8-0.2,1.4c0,0.3-0.2,0.5-0.4,0.5c-1.1,0-1.7,0-2.8,0c-0.1,0.4-0.1,0.6-0.2,1c0.8,0,1.2,0,2,0
			c0.3,0,0.3,0.2,0.3,0.5c-0.1,0.6-0.2,0.9-0.3,1.4c-0.1,0.3-0.2,0.5-0.5,0.5c-0.8,0-1.2,0-2-0.1c-0.1,0.4-0.1,0.7-0.2,1.1
			c1.1,0.1,1.7,0.1,2.8,0.1c0.2,0,0.3,0.2,0.3,0.5c-0.1,0.6-0.1,0.9-0.2,1.4c0,0.3-0.1,0.4-0.4,0.4
			C372.8,191.9,371.9,191.9,370.1,191.8z"/>
		<path class="st2" d="M376.6,192.1c-0.2,0-0.4-0.1-0.3-0.4c0.2-2.9,1.2-5.4,1.4-8.3c0-0.3,0.1-0.4,0.4-0.4c1.4,0,2,0,3.4,0
			c1.5,0,2,0.7,1.7,2c0,0.2-0.1,0.4-0.1,0.6c-0.1,0.8-0.4,1.3-0.9,1.6c0.7,0.1,1,0.9,0.8,2c-0.2,1.2-0.4,1.7-0.4,2.7
			c0,0.3-0.1,0.4-0.4,0.4c-0.6,0-0.9,0-1.5,0c-0.2,0-0.4-0.1-0.3-0.4c0.1-0.7,0.1-1.1,0.3-1.9c0.1-0.4,0-0.6-0.3-0.6
			c-0.6,0-0.8,0-1.4,0c-0.2,1.1-0.3,1.6-0.4,2.4c0,0.3-0.1,0.4-0.4,0.4C377.5,192.1,377.2,192.1,376.6,192.1z M379.3,186.9
			c0.3,0,0.5,0,0.8,0c0.4,0,0.5-0.3,0.6-0.6c0-0.2,0.1-0.3,0.1-0.5c0.1-0.4,0-0.6-0.3-0.6c-0.3,0-0.5,0-0.8,0
			C379.6,185.8,379.5,186.2,379.3,186.9z"/>
	</g>
</g>
</svg>
