<?xml version="1.0" encoding="utf-8"?>
<!-- Generator: Adobe Illustrator 25.3.1, SVG Export Plug-In . SVG Version: 6.00 Build 0)  -->
<svg version="1.1" id="visual" xmlns="http://www.w3.org/2000/svg" xmlns:xlink="http://www.w3.org/1999/xlink" x="0px" y="0px"
	 viewBox="0 0 960 213.9" style="enable-background:new 0 0 960 213.9;" xml:space="preserve">
<style type="text/css">
	.st0{fill:#001220;}
	.st1{fill:#FA7268;}
	.st2{fill:#F45F56;}
	.st3{fill:#EE4A44;}
	.st4{fill:#E73133;}
	.st5{fill:#DF0321;}
	.st6{fill:#FFFFFF;}
	.st7{fill:#EDE4E4;stroke:#000000;stroke-width:0.5;stroke-miterlimit:10;}
	.st8{fill:none;stroke:#FFFFFF;stroke-width:5;stroke-linecap:round;}
	.st9{fill:#324D5B;}
	.st10{fill:#F4B459;}
	.st11{fill:#E4E7E7;}
	.st12{fill:#3DB39E;}
</style>
<rect y="-4.9" class="st0" width="960" height="217.8"/>
<path class="st1" d="M0,48.9l13.3,4.8c13.4,4.9,40,14.5,66.7,17.5s53.3-0.6,80-3.3c26.7-2.7,53.3-4.3,80-0.7
	c26.7,3.7,53.3,12.7,80,12.2s53.3-10.5,80-14c26.7-3.5,53.3-0.5,80,1s53.3,1.5,80,1.8c26.7,0.4,53.3,1,80,2.9
	c26.7,1.8,53.3,4.8,80-0.5c26.7-5.4,53.3-19,80-25s53.3-4.4,80-5.4s53.3-4.6,66.7-6.5l13.3-1.8v182h-13.3c-13.4,0-40,0-66.7,0
	s-53.3,0-80,0s-53.3,0-80,0s-53.3,0-80,0s-53.3,0-80,0s-53.3,0-80,0s-53.3,0-80,0s-53.3,0-80,0s-53.3,0-80,0s-53.3,0-80,0
	s-53.3,0-80,0s-53.3,0-66.7,0H0V48.9z"/>
<path class="st2" d="M0,114.9l13.3-4.7c13.4-4.6,40-14,66.7-19.5s53.3-7.1,80-6.5c26.7,0.7,53.3,3.7,80,0.9
	c26.7-2.9,53.3-11.5,80-16.5s53.3-6.4,80-9.2s53.3-7.2,80-3.2s53.3,16.4,80,23.9s53.3,10.1,80,12.5c26.7,2.3,53.3,4.3,80,5
	c26.7,0.6,53.3,0,80-2.4c26.7-2.3,53.3-6.3,80-13c26.7-6.6,53.3-16,66.7-20.6l13.3-4.7v157h-13.3c-13.4,0-40,0-66.7,0s-53.3,0-80,0
	s-53.3,0-80,0s-53.3,0-80,0s-53.3,0-80,0s-53.3,0-80,0s-53.3,0-80,0s-53.3,0-80,0s-53.3,0-80,0s-53.3,0-80,0s-53.3,0-80,0
	s-53.3,0-66.7,0H0V114.9z"/>
<path class="st3" d="M0,140.9l13.3-6.5c13.4-6.5,40-19.5,66.7-20.8c26.7-1.4,53.3,9,80,13.6c26.7,4.7,53.3,3.7,80-3
	c26.7-6.6,53.3-19,80-21.1c26.7-2.2,53.3,5.8,80,6.1c26.7,0.4,53.3-7,80-8.8s53.3,1.8,80-0.2s53.3-9.6,80-10.8s53.3,4.2,80,10.2
	s53.3,12.6,80,13c26.7,0.3,53.3-5.7,80-11.9c26.7-6.1,53.3-12.5,66.7-15.6l13.3-3.2v132h-13.3c-13.4,0-40,0-66.7,0s-53.3,0-80,0
	s-53.3,0-80,0s-53.3,0-80,0s-53.3,0-80,0s-53.3,0-80,0s-53.3,0-80,0s-53.3,0-80,0s-53.3,0-80,0s-53.3,0-80,0s-53.3,0-80,0
	s-53.3,0-66.7,0H0V140.9z"/>
<path class="st4" d="M0,143.9l13.3,0.2c13.4,0.1,40,0.5,66.7,1.3s53.3,2.2,80,5.7c26.7,3.5,53.3,9.1,80,6.8s53.3-12.7,80-19.2
	s53.3-9.1,80-8c26.7,1.2,53.3,6.2,80,7.4c26.7,1.1,53.3-1.5,80-3s53.3-1.9,80-2.7c26.7-0.8,53.3-2.2,80,1s53.3,10.8,80,12
	s53.3-4.2,80-10s53.3-12.2,66.7-15.3l13.3-3.2v97h-13.3c-13.4,0-40,0-66.7,0s-53.3,0-80,0s-53.3,0-80,0s-53.3,0-80,0s-53.3,0-80,0
	s-53.3,0-80,0s-53.3,0-80,0s-53.3,0-80,0s-53.3,0-80,0s-53.3,0-80,0s-53.3,0-80,0s-53.3,0-66.7,0H0V143.9z"/>
<path class="st5" d="M0,166.9l13.3,1.8c13.4,1.9,40,5.5,66.7,3.2s53.3-10.7,80-14.5s53.3-3.2,80-2.7s53.3,0.9,80,2.7
	s53.3,5.2,80,8.3c26.7,3.2,53.3,6.2,80,7.2s53.3,0,80-3.5s53.3-9.5,80-11.2c26.7-1.6,53.3,1,80,4.9c26.7,3.8,53.3,8.8,80,12.5
	c26.7,3.6,53.3,6,80,6.3s53.3-1.3,66.7-2.2l13.3-0.8v35h-13.3c-13.4,0-40,0-66.7,0s-53.3,0-80,0s-53.3,0-80,0s-53.3,0-80,0
	s-53.3,0-80,0s-53.3,0-80,0s-53.3,0-80,0s-53.3,0-80,0s-53.3,0-80,0s-53.3,0-80,0s-53.3,0-80,0s-53.3,0-66.7,0H0V166.9z"/>
<g transform="translate(0 1)">
	<g>
		<g>
			<path class="st6" d="M167.9,11.4c0.7,0,1.2-0.5,1.2-1.2S168.6,9,167.9,9s-1.2,0.5-1.2,1.2S167.2,11.4,167.9,11.4z"/>
			<path class="st6" d="M175.2,50.2c-0.7,0-1.2,0.5-1.2,1.2c0,0.7,0.5,1.2,1.2,1.2s1.2-0.5,1.2-1.2
				C176.4,50.7,175.9,50.2,175.2,50.2z"/>
			<path class="st6" d="M107.4,63.5c-0.7,0-1.2,0.5-1.2,1.2c0,0.7,0.5,1.2,1.2,1.2s1.2-0.5,1.2-1.2S108.1,63.5,107.4,63.5z"/>
			<path class="st6" d="M172.8,73.2h-1.6l-4.4-15.4c0.1-0.3,0-0.7-0.2-1c-0.2-0.3-0.4-0.5-0.7-0.5l-10.1-4.5V49h3.6
				c2.7,0,4.8-2.2,4.8-4.8V17.5c0-2.7-2.2-4.8-4.8-4.8h-3.6v-1.9c0-1.6-1.3-2.9-3-2.9h-5.4V4.2c0-0.7-0.5-1.2-1.2-1.2
				s-1.2,0.5-1.2,1.2v3.6h-4.8V6.6c0-0.7-0.5-1.2-1.2-1.2s-1.2,0.5-1.2,1.2v1.2h-5.6c-1.6,0-2.9,1.3-2.9,2.9v1.9h-3.6
				c-2.7,0-4.8,2.2-4.8,4.8v26.6c0,2.7,2.2,4.8,4.8,4.8h3.6v2.9l-9.7,4.3c-0.4,0-0.8,0.2-1.1,0.6c-0.1,0.2-0.2,0.5-0.2,0.8
				l-4.5,15.7h-1.5c-0.7,0-1.2,0.5-1.2,1.2s0.5,1.2,1.2,1.2h2.1c0.1,0,0.2,0,0.4,0h3.6c0.7,0,1.2-0.5,1.2-1.2s-0.5-1.2-1.2-1.2h-2.1
				l0.7-2.4c0.1,0,0.1,0,0.2,0c0.1,0,0.2,0,0.5-0.1l13-4.7h10.7v7.3h-1.2c-0.7,0-1.2,0.5-1.2,1.2s0.5,1.2,1.2,1.2h4.8
				c0.7,0,1.2-0.5,1.2-1.2s-0.5-1.2-1.2-1.2h-1.2v-7.3h10.9l13,4.7c0.1,0.1,0.2,0.1,0.4,0.1c0,0,0,0,0.1,0l0.7,2.4h-2
				c-0.7,0-1.2,0.5-1.2,1.2s0.5,1.2,1.2,1.2h3.6h0.2h2.2c0.7,0,1.2-0.5,1.2-1.2S173.5,73.2,172.8,73.2z M155.8,54.4l7.3,3.2
				l-7.3,4.9V54.4z M131.6,10.7c0-0.2,0.2-0.5,0.5-0.5h20.8c0.2,0,0.5,0.2,0.5,0.5v1.9h-21.8V10.7z M125.5,46.5
				c-1.3,0-2.4-1.1-2.4-2.4V17.5c0-1.3,1.1-2.4,2.4-2.4h3.6h26.6h3.6c1.3,0,2.4,1.1,2.4,2.4v26.6c0,1.3-1.1,2.4-2.4,2.4h-3.6h-26.6
				L125.5,46.5L125.5,46.5z M153.4,49v2.4h-21.8V49H153.4z M129.2,62.4l-7.2-4.8l7.2-3.2V62.4z M120.1,59.3l7.5,5l-10,3.6
				L120.1,59.3z M153.4,63.5h-21.8v-9.7h21.8V63.5z M157.5,64.4l7.3-4.9l2.4,8.4L157.5,64.4z"/>
			<path class="st6" d="M135.2,59.9c0.7,0,1.2-0.5,1.2-1.2c0-0.7-0.5-1.2-1.2-1.2s-1.2,0.5-1.2,1.2C134,59.4,134.5,59.9,135.2,59.9z
				"/>
			<path class="st6" d="M140.1,59.9c0.7,0,1.2-0.5,1.2-1.2c0-0.7-0.5-1.2-1.2-1.2s-1.2,0.5-1.2,1.2
				C138.9,59.4,139.3,59.9,140.1,59.9z"/>
			<path class="st6" d="M144.9,59.9c0.7,0,1.2-0.5,1.2-1.2c0-0.7-0.5-1.2-1.2-1.2s-1.2,0.5-1.2,1.2
				C143.7,59.4,144.2,59.9,144.9,59.9z"/>
			<path class="st6" d="M149.8,59.9c0.7,0,1.2-0.5,1.2-1.2c0-0.7-0.5-1.2-1.2-1.2c-0.7,0-1.2,0.5-1.2,1.2
				C148.5,59.4,149,59.9,149.8,59.9z"/>
			<path class="st6" d="M153.4,30.8c0-6.1-4.8-10.9-10.9-10.9c-6.1,0-10.9,4.8-10.9,10.9s4.8,10.9,10.9,10.9
				C148.5,41.7,153.4,36.8,153.4,30.8z M142.5,39.3c-4.7,0-8.5-3.8-8.5-8.5s3.8-8.5,8.5-8.5c4.7,0,8.5,3.8,8.5,8.5
				C151,35.5,147.2,39.3,142.5,39.3z"/>
			<path class="st6" d="M142.5,24.7c-3.4,0-6.1,2.7-6.1,6.1c0,3.4,2.7,6.1,6.1,6.1c3.4,0,6.1-2.7,6.1-6.1S145.9,24.7,142.5,24.7z
				 M142.5,34.4c-2.1,0-3.6-1.6-3.6-3.6s1.6-3.6,3.6-3.6s3.6,1.6,3.6,3.6C146.1,32.9,144.5,34.4,142.5,34.4z"/>
			<path class="st6" d="M126.7,17.5c-0.7,0-1.2,0.5-1.2,1.2s0.5,1.2,1.2,1.2c0.7,0,1.2-0.5,1.2-1.2S127.5,17.5,126.7,17.5z"/>
			<path class="st6" d="M134,19.9c0.7,0,1.2-0.5,1.2-1.2s-0.5-1.2-1.2-1.2h-2.4c-0.7,0-1.2,0.5-1.2,1.2s0.5,1.2,1.2,1.2H134z"/>
			<path class="st6" d="M158.2,44.1c0.7,0,1.2-0.5,1.2-1.2s-0.5-1.2-1.2-1.2c-0.7,0-1.2,0.5-1.2,1.2S157.5,44.1,158.2,44.1z"/>
			<path class="st6" d="M153.4,41.7H151c-0.7,0-1.2,0.5-1.2,1.2s0.5,1.2,1.2,1.2h2.4c0.7,0,1.2-0.5,1.2-1.2S154.1,41.7,153.4,41.7z"
				/>
		</g>
	</g>
</g>
<g>
	<g>
		<path class="st6" d="M676,150.1c-0.4,0-0.5-0.2-0.6-0.6c-0.2-4.6-0.3-7.8-0.6-11.9c0-0.4,0.1-0.6,0.4-0.5c0.5,0,0.8,0,1.4,0
			c0.4,0,0.6,0.1,0.9,0.4c1.3,1.4,2.1,2.3,3.3,4c0-1.6,0-2.4-0.2-3.7c-0.1-0.4,0.1-0.6,0.5-0.5c1,0,1.5,0.1,2.6,0.1
			c0.4,0,0.7,0.2,0.7,0.6c0.4,4.1-0.5,7.3-0.5,11.9c0,0.4-0.1,0.6-0.5,0.6c-0.8-0.1-1.2-0.1-2-0.1c-0.3,0-0.5-0.2-0.5-0.6
			c0-0.9-0.1-1.3-0.1-2.2c-1-1.6-1.5-2.4-2.6-4.1c0.1,2.5,0.1,3.9,0.3,6.2c0,0.4-0.1,0.6-0.5,0.6C677.3,150.1,676.9,150.1,676,150.1
			z"/>
		<path class="st6" d="M686.4,150.6c-0.3,0-0.5-0.2-0.5-0.7c0.1-4.5,1.4-7.7,1.1-11.8c0-0.4,0.2-0.6,0.6-0.5c3.5,0.2,5.4,0.4,9,0.7
			c0.5,0,0.7,0.2,0.7,0.6c-0.1,0.7-0.2,1.1-0.4,2c-0.1,0.4-0.4,0.6-0.9,0.6c-2-0.2-3-0.3-5-0.5c-0.1,0.6-0.2,0.8-0.3,1.4
			c1.4,0.1,2,0.2,3.4,0.3c0.4,0,0.6,0.3,0.4,0.7c-0.3,0.8-0.5,1.2-0.8,2c-0.2,0.5-0.4,0.7-0.8,0.6c-1.2-0.1-1.8-0.2-3-0.3
			c-0.2,0.7-0.3,1-0.4,1.6c1.6,0.2,2.4,0.2,4,0.4c0.4,0,0.4,0.3,0.3,0.7c-0.3,0.9-0.5,1.3-0.7,2.1c-0.1,0.4-0.3,0.6-0.6,0.6
			C690.1,150.9,688.9,150.8,686.4,150.6z"/>
		<path class="st6" d="M695,151.5c-0.3,0-0.4-0.2-0.3-0.7c1.3-4.4,4.2-7.6,4.9-11.7c0.1-0.4,0.3-0.5,0.8-0.5
			c3.6,0.4,5.4,0.6,8.6,1.2c0.4,0.1,0.6,0.3,0.5,0.7c-0.2,0.7-0.4,1.1-0.9,1.9c-0.2,0.4-0.6,0.6-1,0.5c-1.9-0.3-2.8-0.5-4.8-0.7
			c-0.3,0.5-0.4,0.8-0.8,1.4c1.3,0.2,2,0.3,3.3,0.5c0.4,0.1,0.5,0.3,0.1,0.8c-0.6,0.8-0.9,1.2-1.4,2c-0.3,0.5-0.6,0.6-1,0.6
			c-1.2-0.2-1.8-0.3-3-0.5c-0.4,0.6-0.6,1-0.9,1.6c1.6,0.2,2.4,0.4,4.1,0.6c0.4,0.1,0.4,0.3,0.1,0.7c-0.5,0.8-0.8,1.2-1.1,2
			c-0.2,0.4-0.4,0.6-0.7,0.5C698.8,152,697.5,151.8,695,151.5z"/>
		<path class="st6" d="M704.2,152.9c-0.4-0.1-0.5-0.3-0.3-0.7c1.9-4.2,6.2-7.3,7.5-11.3c0.1-0.4,0.3-0.5,0.7-0.4
			c2.2,0.5,3,0.6,4.7,1c2.2,0.4,2.9,1.5,1.5,3.9c-1.3,2.1-2.3,3.3-3.6,5.4c-1.5,2.4-2.8,3.2-5.3,2.9
			C707.4,153.4,706.3,153.2,704.2,152.9z M708.9,150.2c0.7,0.1,1.1,0.2,1.8,0.3c0.5,0.1,0.8-0.2,1.3-0.8c1.2-1.7,2-2.6,3.2-4.3
			c0.4-0.6,0.4-0.9-0.1-0.9c-0.6-0.1-0.9-0.2-1.6-0.3C711.9,146.5,710.6,147.8,708.9,150.2z"/>
		<path class="st6" d="M718.7,154.7c-0.4,0-0.5-0.2-0.4-0.6c1.3-3.9,4.1-6.9,5.4-10.7c0.1-0.4,0.3-0.5,0.5-0.5
			c0.7,0.1,1,0.2,1.7,0.3c0.3,0.1,0.4,0.2,0.2,0.6c-0.4,1.3-0.7,2-1.4,3.5c0.8,0.1,1.2,0.2,2,0.3c0.6-1.5,0.9-2.2,1.2-3.5
			c0.1-0.4,0.2-0.5,0.5-0.5c0.7,0.1,1,0.2,1.7,0.3c0.3,0.1,0.4,0.2,0.3,0.6c-0.8,3.9-2.2,6.9-2.9,10.7c-0.1,0.4-0.3,0.5-0.6,0.4
			c-0.9-0.1-1.4-0.2-2.3-0.3c-0.4-0.1-0.5-0.2-0.4-0.6c0.3-1.3,0.6-2,1.2-3.6c-0.9-0.1-1.4-0.2-2.2-0.3c-0.7,1.5-1,2.3-1.4,3.6
			c-0.1,0.4-0.3,0.5-0.7,0.5C720.1,154.8,719.6,154.8,718.7,154.7z"/>
		<path class="st6" d="M730.2,156.3c-0.4-0.1-0.5-0.3-0.5-0.6c0.6-3.8,1.7-6.8,2.3-10.7c0.1-0.4,0.2-0.5,0.5-0.4
			c2.1,0.5,2.8,0.7,5.9,1.4c0.4,0.1,0.6,0.3,0.6,0.7c0,0.7,0,1.1-0.1,1.9c0,0.4-0.2,0.6-0.6,0.5c-1.9-0.5-2.5-0.6-3.9-1
			c-0.1,0.5-0.1,0.8-0.2,1.3c1.1,0.2,1.6,0.4,2.7,0.7c0.4,0.1,0.5,0.3,0.5,0.8c0,0.8-0.1,1.1-0.1,1.9c0,0.4-0.2,0.6-0.6,0.5
			c-1.2-0.3-1.8-0.4-3-0.7c-0.1,0.6-0.1,0.9-0.2,1.5c1.7,0.4,2.5,0.6,4.5,1.1c0.5,0.1,0.6,0.4,0.6,0.8c0,0.8,0,1.2-0.1,1.8
			c0,0.4-0.2,0.5-0.7,0.4C734.4,157.1,733.1,156.8,730.2,156.3z"/>
		<path class="st6" d="M741.4,158.9c-0.5-0.1-0.7-0.3-0.7-0.7c0.1-3.9,0.1-7,0.2-11.1c0-0.4,0.2-0.5,0.6-0.4
			c1.1,0.2,1.6,0.3,2.7,0.6c0.4,0.1,0.6,0.3,0.6,0.7c0,3.2,0,5.3,0,8.7c1,0.2,1.5,0.3,2.5,0.5c0-1.1,0-1.7,0-2.9
			c0-0.5,0.2-0.6,0.7-0.5c1.1,0.2,1.6,0.3,2.6,0.5c0.5,0.1,0.7,0.3,0.7,0.8c0,2.3,0,3.4,0,5.4c0,0.4-0.2,0.5-0.6,0.4
			C747,160.1,745.2,159.7,741.4,158.9z"/>
		<path class="st6" d="M754,161.2c-0.4-0.1-0.6-0.3-0.6-0.6c0-3.9,0.1-7,0.1-11.2c0-0.4,0.2-0.5,0.7-0.5c2.3,0.4,3.5,0.6,5.7,0.9
			c3.4,0.5,4.3,1.9,4.1,3.8c-0.1,0.9-0.1,1.3-0.2,2.2c-0.2,2-1.2,3.3-4.4,2.9c-0.8-0.1-1.2-0.2-2-0.3c0,1.1-0.1,1.7-0.1,2.7
			c0,0.4-0.2,0.5-0.6,0.4C755.6,161.5,755.1,161.4,754,161.2z M757.5,155.4c0.7,0.1,1,0.1,1.6,0.2c0.7,0.1,0.9-0.3,0.9-0.8
			c0-0.4,0-0.6,0.1-0.9c0-0.5-0.1-0.9-0.8-1c-0.7-0.1-1-0.1-1.6-0.2C757.6,153.7,757.5,154.3,757.5,155.4z"/>
		<path class="st6" d="M767.3,159c-0.4,0-0.6-0.1-0.6-0.6c0-0.9-0.1-1.3-0.1-2.3c0-0.5,0.2-0.6,0.6-0.6c1.4,0,2.1-0.1,3.4-0.1
			c0.3,0,0.5-0.1,0.5-0.5c0-0.3-0.1-0.5-0.4-0.5c-1.8-0.2-2.8-0.3-4.7-0.6c-0.4-0.1-0.6-0.3-0.6-0.7c0.1-0.8,0.1-1.2,0.2-2
			c0-0.4,0.2-0.5,0.7-0.5c2.3,0.3,3.4,0.5,5.6,0.8c2.2,0.3,3.2,1.3,3,3.1c-0.1,0.7-0.2,1-0.3,1.7c-0.3,1.8-1.3,2.4-2.8,2.5
			C770,158.9,769.1,159,767.3,159z M766.5,162.6c-0.4,0-0.6-0.2-0.6-0.5c0.1-0.7,0.1-1.1,0.2-2c0-0.4,0.2-0.6,0.7-0.5
			c1.2,0.1,1.8,0.2,3,0.2c0.4,0,0.6,0.2,0.5,0.6c-0.1,0.8-0.1,1.2-0.2,1.9c0,0.3-0.2,0.5-0.6,0.5
			C768.3,162.7,767.7,162.7,766.5,162.6z"/>
	</g>
</g>
<path class="st7" d="M836,165.4"/>
<g id="Gruppe_5" transform="translate(-109.136 -521.155)">
	<path id="Pfad_6" class="st8" d="M899.1,680.9c0,0,3,18.1-11.3,28.5c-14.3,10.4-18,11.6-18,11.6"/>
	<line id="Linie_30" class="st8" x1="874.5" y1="710.8" x2="869.8" y2="721"/>
	<path id="Pfad_7" class="st8" d="M881.2,721h-11.4"/>
</g>
<g>
	<path class="st9" d="M373.6,29.2c-1.6-0.5-3.3,0.4-3.9,2c-0.5,1.6,0.4,3.3,2,3.9c1.6,0.5,3.3-0.4,3.9-2
		C376.1,31.4,375.2,29.7,373.6,29.2z M382,29.7c-1.6-0.5-3.3,0.4-3.9,2c-0.5,1.6,0.4,3.3,2,3.9c1.6,0.5,3.3-0.4,3.9-2
		C384.5,32,383.6,30.3,382,29.7z M366.4,24.7c-1.6-0.5-3.3,0.4-3.9,2c-0.5,1.6,0.4,3.3,2,3.9c1.6,0.5,3.3-0.4,3.9-2
		C368.9,26.9,368,25.2,366.4,24.7z"/>
	<path class="st10" d="M367.7,16.9c5.9-1.4,13.9,1.2,17.9,5.8s2.3,9.6-3.6,11c-5.9,1.4-13.9-1.2-17.9-5.8S361.8,18.3,367.7,16.9z"/>
	<path class="st9" d="M367.4,10.8c7.2-1.6,17.1,1.6,22,7.1c4.9,5.6,3,11.4-4.2,13.1c-7.2,1.6-17.1-1.6-22-7.1
		C358.2,18.3,360.1,12.4,367.4,10.8z"/>
	<path class="st11" d="M380.8,6.8c5.4,1.7,8.3,7.5,6.6,12.9c-1.7,5.4-6.9,6.4-12.2,4.6c-5.4-1.7-8.9-5.6-7.2-10.9
		C369.7,8,375.5,5.1,380.8,6.8z"/>
	<path class="st12" d="M381.1,25c0.4-0.5,0.7-1.1,0.9-1.7l1.6-4.9c1-3.2-0.7-6.7-3.9-7.7c-3.2-1-6.7,0.7-7.7,3.9l-1.6,4.9
		c-0.2,0.6-0.3,1.3-0.3,1.9c1.3,1.3,3.1,2.2,5.2,2.9C377.2,25,379.2,25.2,381.1,25z"/>
	<path class="st6" d="M378.3,14.6c1.6,0.5,2.5,2.3,2,3.9c-0.5,1.6-2.3,2.5-3.9,2c-1.6-0.5-2.5-2.3-2-3.9
		C375,14.9,376.7,14.1,378.3,14.6z"/>
	<path class="st9" d="M377.7,16.5c0.5,0.2,0.8,0.8,0.7,1.3c-0.2,0.5-0.7,0.8-1.3,0.7c-0.5-0.2-0.8-0.7-0.7-1.3
		C376.6,16.6,377.1,16.3,377.7,16.5z"/>
</g>
</svg>
